<?xml version="1.0" encoding="UTF-8"?>
<svg version="1.1" xmlns="http://www.w3.org/2000/svg" width="1200" height="1200">
<path d="M0 0 C396 0 792 0 1200 0 C1200 396 1200 792 1200 1200 C804 1200 408 1200 0 1200 C0 804 0 408 0 0 Z " fill="#252745" transform="translate(0,0)"/>
<path d="M0 0 C1.80281181 -0.0098568 1.80281181 -0.0098568 3.64204407 -0.01991272 C7.59363188 -0.03950935 11.54520614 -0.05130752 15.49682617 -0.0612793 C16.87524622 -0.06533771 18.2536661 -0.06945491 19.6320858 -0.07362938 C26.12690348 -0.09264795 32.62171018 -0.1068752 39.11655027 -0.11524135 C46.51993301 -0.12494391 53.92301119 -0.15109204 61.32628709 -0.19174224 C67.10612515 -0.22234516 72.88587829 -0.23675178 78.66579551 -0.24002236 C82.08951324 -0.24232704 85.51290504 -0.25065948 88.93653297 -0.27648354 C113.3451645 -0.43480254 137.97000217 1.08207359 161.47729492 8.17700195 C162.42733398 8.42579102 163.37737305 8.67458008 164.35620117 8.9309082 C179.8680849 13.39677737 197.1745092 22.59164658 208.47729492 34.17700195 C209.9253073 35.2946693 211.38480639 36.39753238 212.85229492 37.48950195 C217.37587757 40.96230181 220.86601818 44.78918763 224.47729492 49.17700195 C225.63551758 50.48797852 225.63551758 50.48797852 226.81713867 51.82543945 C241.35575051 68.53700252 251.2607415 88.6915753 256.47729492 110.17700195 C256.66420898 110.87027588 256.85112305 111.5635498 257.04370117 112.27783203 C258.89478487 119.97344995 258.77998431 127.73385089 258.73803711 135.59814453 C258.7273632 137.97430215 258.73795619 140.34969607 258.75073242 142.72583008 C258.76337598 155.0818053 257.39454112 166.78161367 254.16479492 178.73950195 C253.94460693 179.55539795 253.72441895 180.37129395 253.49755859 181.21191406 C249.01880474 197.34533457 240.68559616 215.50397953 229.47729492 228.17700195 C228.81729492 228.17700195 228.15729492 228.17700195 227.47729492 228.17700195 C227.13504883 228.99104492 227.13504883 228.99104492 226.78588867 229.8215332 C225.09225504 232.87007375 222.89195812 235.31849705 220.53979492 237.86450195 C220.0525293 238.39269531 219.56526367 238.92088867 219.06323242 239.46508789 C209.04616673 250.10661076 196.81499194 258.54607243 184.47729492 266.2746582 C179.71974741 269.29148846 175.05004731 272.43755786 170.37182617 275.57543945 C167.81857561 277.28698013 165.25397114 278.97871596 162.67651367 280.65356445 C140.16241414 295.33527772 119.24483418 312.75430529 105.47729492 336.17700195 C104.99131836 336.94915039 104.5053418 337.72129883 104.00463867 338.5168457 C89.31748596 362.05545579 81.91799106 387.30354122 79.78320312 414.84912109 C77.73386831 441.28903455 73.78928931 463.52738528 54.47729492 483.17700195 C53.86370117 483.80348633 53.25010742 484.4299707 52.61791992 485.07543945 C37.61476938 499.24508163 18.05537022 504.7499503 -2.08911133 504.4465332 C-22.51989344 503.726615 -40.4873003 492.84496916 -54.27270508 478.36450195 C-68.17944707 462.27241479 -72.97239351 443.65644781 -72.96020508 422.86450195 C-72.96080933 421.80678085 -72.96080933 421.80678085 -72.96142578 420.72769165 C-72.86027541 389.88511327 -60.60842008 361.45606796 -40.52270508 338.17700195 C-40.08700195 337.62141602 -39.65129883 337.06583008 -39.20239258 336.4934082 C-35.78398024 332.13549844 -31.77196324 328.68784242 -27.52270508 325.17700195 C-27.03656738 324.76788574 -26.55042969 324.35876953 -26.04956055 323.93725586 C-13.40580281 313.34718847 -0.13525712 305.61187991 15.47729492 300.17700195 C16.35256836 299.84313477 17.2278418 299.50926758 18.12963867 299.1652832 C22.19389277 297.61903315 26.25699346 296.21626379 30.44995117 295.0637207 C45.17157497 291.01657347 60.02168277 286.02829017 68.66479492 272.55200195 C69.63439473 270.77750149 70.57093273 268.98462007 71.47729492 267.17700195 C72.21012695 265.77708008 72.21012695 265.77708008 72.95776367 264.34887695 C77.96349553 253.41198382 78.71773333 239.53414812 74.85229492 228.05200195 C70.64303388 218.4372676 70.64303388 218.4372676 63.47729492 211.17700195 C63.47729492 210.51700195 63.47729492 209.85700195 63.47729492 209.17700195 C62.67291992 208.83668945 62.67291992 208.83668945 61.85229492 208.48950195 C59.47729492 207.17700195 59.47729492 207.17700195 57.10229492 204.86450195 C52.20969848 200.61500453 45.55092673 199.07958541 39.47729492 197.17700195 C38.84307617 196.97075195 38.20885742 196.76450195 37.55541992 196.55200195 C26.43414658 194.54515564 14.36963079 196.28550232 3.28979492 197.67700195 C-24.8003526 201.16215205 -49.36086796 197.02256454 -72.52270508 180.17700195 C-76.0589836 177.35662764 -79.30701384 174.35434594 -82.52270508 171.17700195 C-83.35157227 170.4087207 -84.18043945 169.64043945 -85.03442383 168.84887695 C-94.59383073 159.77256413 -101.73532814 149.47071903 -106.52270508 137.17700195 C-106.96485352 136.05165039 -107.40700195 134.92629883 -107.86254883 133.7668457 C-117.43067309 108.27958136 -114.63573423 82.34201216 -103.96020508 57.5480957 C-100.05675244 49.31650923 -95.24576768 42.24355615 -89.52270508 35.17700195 C-89.02125977 34.5221582 -88.51981445 33.86731445 -88.00317383 33.19262695 C-71.70464374 12.71378223 -46.14028727 3.78214844 -21.06155872 0.89352131 C-14.02938629 0.20790724 -7.06273436 0.01710571 0 0 Z " fill="#A0AAF7" transform="translate(548.522705078125,347.822998046875)"/>
<path d="M0 0 C8.5221656 5.54758773 14.62818965 12.24252745 18.55078125 21.58203125 C20.69472682 33.66608812 19.55417352 44.55680718 12.48828125 54.76953125 C5.60832942 62.91351039 -2.11544337 65.89617764 -12.12744141 68.72509766 C-24.28694522 72.18294786 -35.87159137 75.92536614 -46.76171875 82.45703125 C-47.42510254 82.84358887 -48.08848633 83.23014648 -48.77197266 83.62841797 C-57.73162717 88.87273862 -65.92438258 94.61857126 -73.76171875 101.45703125 C-74.48875 102.06289063 -75.21578125 102.66875 -75.96484375 103.29296875 C-80.72369976 107.30711829 -84.79795524 111.66384586 -88.76171875 116.45703125 C-89.38820313 117.19566406 -90.0146875 117.93429687 -90.66015625 118.6953125 C-106.52295273 137.849796 -118.26272365 161.25300647 -122.8203125 185.796875 C-124.52259891 194.9180813 -129.0679942 203.99273825 -136.76171875 209.45703125 C-146.68535059 214.85582528 -155.98481816 217.05283136 -167.296875 214.99609375 C-176.94967242 212.10195696 -184.63605511 206.11488796 -189.76171875 197.45703125 C-198.15099654 179.28853615 -191.45050241 158.91366943 -184.86181641 141.01196289 C-183.87213264 138.47408628 -182.82110338 135.96664144 -181.76171875 133.45703125 C-181.29121094 132.3071875 -180.82070313 131.15734375 -180.3359375 129.97265625 C-169.05263738 102.88300899 -152.81322818 79.73374469 -132.76171875 58.45703125 C-132.07207031 57.72484375 -131.38242187 56.99265625 -130.671875 56.23828125 C-125.42173893 50.82709806 -119.64413677 46.15964226 -113.76171875 41.45703125 C-112.60929687 40.48636719 -112.60929687 40.48636719 -111.43359375 39.49609375 C-89.43733106 21.16587484 -62.38678837 7.65043751 -34.77734375 0.28125 C-31.759531 -0.4913731 -31.759531 -0.4913731 -28.91796875 -1.625 C-20.18894119 -4.1637642 -8.21315233 -4.01437324 0 0 Z " fill="#C6CCFA" transform="translate(585.76171875,558.54296875)"/>
<path d="M0 0 C8.66052213 4.59537909 14.72716173 10.54074967 21 18 C21.77472656 18.87527344 22.54945313 19.75054687 23.34765625 20.65234375 C37.87324542 37.37809944 47.78224615 57.50962914 53 79 C53.28037109 80.03991089 53.28037109 80.03991089 53.56640625 81.10083008 C55.41748995 88.796448 55.30268939 96.55684894 55.26074219 104.42114258 C55.25006828 106.7973002 55.26066127 109.17269412 55.2734375 111.54882812 C55.28608106 123.90480335 53.9172462 135.60461172 50.6875 147.5625 C50.35721802 148.78634399 50.35721802 148.78634399 50.02026367 150.03491211 C45.54150982 166.16833262 37.20830124 184.32697757 26 197 C25.34 197 24.68 197 24 197 C23.77570312 197.53882813 23.55140625 198.07765625 23.3203125 198.6328125 C21.57752161 201.75746126 19.28981133 204.26443733 16.875 206.875 C16.14446411 207.67019043 16.14446411 207.67019043 15.39916992 208.48144531 C11.62124584 212.51271764 7.63631316 215.9711192 3 219 C2.34 217.68 1.68 216.36 1 215 C4.96 213.02 4.96 213.02 9 211 C9 209.35 9 207.7 9 206 C12.75 204.875 12.75 204.875 15 206 C15.33 203.36 15.66 200.72 16 198 C21.625 196 21.625 196 25 196 C25.08004482 192.4780279 25.04005702 189.38018531 24 186 C27 184 27 184 31 184 C31 183.01 31 182.02 31 181 C31.66 181 32.32 181 33 181 C33.144375 180.38125 33.28875 179.7625 33.4375 179.125 C34 177 34 177 35 175 C34.34 174.67 33.68 174.34 33 174 C33.61875 173.938125 34.2375 173.87625 34.875 173.8125 C37.25602845 173.17948312 37.25602845 173.17948312 38.1875 170.5625 C38.455625 169.716875 38.72375 168.87125 39 168 C39.33 167.34 39.66 166.68 40 166 C40.06996014 164.29297265 40.08440154 162.58331997 40.0625 160.875 C40.05347656 159.96492187 40.04445313 159.05484375 40.03515625 158.1171875 C40.02355469 157.41851563 40.01195312 156.71984375 40 156 C40.66 156 41.32 156 42 156 C42.66 155.34 43.32 154.68 44 154 C44 154.66 44 155.32 44 156 C44.66 156 45.32 156 46 156 C46 154.68 46 153.36 46 152 C45.34 151.67 44.68 151.34 44 151 C44 150.34 44 149.68 44 149 C45.32 148.67 46.64 148.34 48 148 C48.12117187 147.35933594 48.24234375 146.71867188 48.3671875 146.05859375 C48.53476562 145.19363281 48.70234375 144.32867188 48.875 143.4375 C49.03742187 142.59058594 49.19984375 141.74367188 49.3671875 140.87109375 C50 138 50 138 51.02734375 134.8828125 C52.26345977 130.57638121 52.25312553 126.45683508 52.1953125 122.00390625 C52.1924826 121.17036118 52.18965271 120.3368161 52.18673706 119.47801208 C52.17562289 116.8393564 52.15053515 114.20105152 52.125 111.5625 C52.11495885 109.76367681 52.10583499 107.96484825 52.09765625 106.16601562 C52.07571235 101.77721045 52.04124387 97.38866452 52 93 C51.34 93 50.68 93 50 93 C50.226875 92.071875 50.45375 91.14375 50.6875 90.1875 C51.36449947 85.67721977 50.00581866 81.96093649 48.703125 77.66796875 C47.81135837 74.28420981 47.76845395 71.47319077 48 68 C47.34 68 46.68 68 46 68 C46 66.35 46 64.7 46 63 C44.35 62.67 42.7 62.34 41 62 C40 55.375 40 55.375 40 52 C39.34 51.01 38.68 50.02 38 49 C37.875 46.3125 37.875 46.3125 38 44 C36.68 44.66 35.36 45.32 34 46 C33.34 45.34 32.68 44.68 32 44 C32.2784375 42.7934375 32.2784375 42.7934375 32.5625 41.5625 C33.28424512 39.01228379 33.28424512 39.01228379 31.875 37.125 C29.97532224 35.72590357 29.97532224 35.72590357 27.3125 36.3125 C26.549375 36.539375 25.78625 36.76625 25 37 C24.40267181 34.23735711 24 31.83967231 24 29 C23.76230794 26.8817921 23.76230794 26.8817921 23 25 C22.01 24.67 21.02 24.34 20 24 C19.67 23.01 19.34 22.02 19 21 C18.01 20.34 17.02 19.68 16 19 C16 18.34 16 17.68 16 17 C15.67 16.01 15.34 15.02 15 14 C12.69 13.67 10.38 13.34 8 13 C7.67 10.69 7.34 8.38 7 6 C4.36 5.67 1.72 5.34 -1 5 C-0.67 3.35 -0.34 1.7 0 0 Z " fill="#7481E0" transform="translate(752,379)"/>
<path d="M0 0 C-2.97 0.99 -5.94 1.98 -9 3 C-9.33 4.98 -9.66 6.96 -10 9 C-11.65 9.33 -13.3 9.66 -15 10 C-15.495 9.01 -15.495 9.01 -16 8 C-22.00030954 7.24996131 -24.75160024 8.74838349 -29.49609375 12.39453125 C-31.34182287 13.99826823 -31.34182287 13.99826823 -31 17 C-31.60328125 17.03738281 -32.2065625 17.07476563 -32.828125 17.11328125 C-38.99367772 17.56253341 -38.99367772 17.56253341 -44 21 C-43.34 21.99 -42.68 22.98 -42 24 C-44 26 -44 26 -46.5 26.4375 C-49.34936529 26.7765556 -49.34936529 26.7765556 -51 30 C-50.67 30.99 -50.34 31.98 -50 33 C-53.28696233 33.79953138 -54.71023192 34.09658936 -58 33 C-57.95875 33.928125 -57.9175 34.85625 -57.875 35.8125 C-58 39 -58 39 -60 42 C-60.66 41.67 -61.32 41.34 -62 41 C-63.485 41.495 -63.485 41.495 -65 42 C-66.22969878 45.51190809 -66.22969878 45.51190809 -67 49 C-69.64 49.66 -72.28 50.32 -75 51 C-75.495 49.515 -75.495 49.515 -76 48 C-74.9609375 46.16796875 -74.9609375 46.16796875 -73.375 44.1875 C-72.81296875 43.48109375 -72.2509375 42.7746875 -71.671875 42.046875 C-71.12015625 41.37140625 -70.5684375 40.6959375 -70 40 C-69.21625 38.989375 -68.4325 37.97875 -67.625 36.9375 C-64.33531729 33.2561884 -60.80214417 30.14142402 -57 27 C-56.5138623 26.59088379 -56.02772461 26.18176758 -55.52685547 25.76025391 C-44.91362019 16.87089687 -14.23435232 -7.11717616 0 0 Z " fill="#B8BDEC" transform="translate(578,646)"/>
<path d="M0 0 C0.82355988 -0.0033284 1.64711975 -0.0066568 2.49563599 -0.01008606 C4.235529 -0.01514131 5.97543168 -0.01749482 7.71533203 -0.01733398 C10.3663749 -0.01951771 13.0169996 -0.03768051 15.66796875 -0.05664062 C17.36197775 -0.05957546 19.05598872 -0.06155965 20.75 -0.0625 C21.93153152 -0.07327827 21.93153152 -0.07327827 23.13693237 -0.08427429 C27.65323374 -0.06568381 31.2522293 0.45785633 35.5078125 2.16796875 C35.8378125 1.50796875 36.1678125 0.84796875 36.5078125 0.16796875 C37.2915625 0.35359375 38.0753125 0.53921875 38.8828125 0.73046875 C41.47871025 1.42759141 41.47871025 1.42759141 43.5078125 0.16796875 C45.48786935 0.42345996 47.46839477 0.6822867 49.4375 1.01171875 C51.47275373 1.28340131 51.47275373 1.28340131 53.23657227 0.68603516 C56.16954381 0.01702886 58.9097917 0.03815095 61.91796875 0.03515625 C63.15482422 0.03386719 64.39167969 0.03257812 65.66601562 0.03125 C67.59864258 0.03705078 67.59864258 0.03705078 69.5703125 0.04296875 C70.86259766 0.03910156 72.15488281 0.03523438 73.48632812 0.03125 C74.72189453 0.03253906 75.95746094 0.03382813 77.23046875 0.03515625 C78.36234619 0.03628418 79.49422363 0.03741211 80.66040039 0.03857422 C83.5078125 0.16796875 83.5078125 0.16796875 86.5078125 1.16796875 C88.848419 0.89026967 91.18405558 0.56256898 93.5078125 0.16796875 C93.5078125 0.82796875 93.5078125 1.48796875 93.5078125 2.16796875 C94.5803125 2.14734375 95.6528125 2.12671875 96.7578125 2.10546875 C99.65571674 2.15376715 101.79393391 2.2995276 104.5078125 3.16796875 C104.8378125 2.50796875 105.1678125 1.84796875 105.5078125 1.16796875 C107.4878125 2.15796875 107.4878125 2.15796875 109.5078125 3.16796875 C109.8378125 2.17796875 110.1678125 1.18796875 110.5078125 0.16796875 C113.1478125 0.49796875 115.7878125 0.82796875 118.5078125 1.16796875 C118.5078125 3.16796875 118.5078125 3.16796875 117.5078125 4.79296875 C113.03175066 7.87026127 105.74608348 5.99550344 100.6640625 5.19384766 C88.84542036 3.55277055 76.91542005 3.80998586 65.0078125 3.75390625 C62.47476596 3.73516185 59.94172544 3.71558609 57.40869141 3.69522095 C51.46645617 3.64942528 45.5242067 3.61189531 39.58189201 3.57854807 C32.80529357 3.54004438 26.02878665 3.49071047 19.25226593 3.44056392 C5.33751639 3.33783175 -8.57729234 3.24838461 -22.4921875 3.16796875 C-22.1621875 2.50796875 -21.8321875 1.84796875 -21.4921875 1.16796875 C-20.88890625 1.17957031 -20.285625 1.19117188 -19.6640625 1.203125 C-18.86484375 1.21214844 -18.065625 1.22117187 -17.2421875 1.23046875 C-16.45328125 1.24207031 -15.664375 1.25367188 -14.8515625 1.265625 C-12.54485881 1.25364464 -12.54485881 1.25364464 -10.58517456 0.67094421 C-7.10739334 -0.16481758 -3.55858784 0.00500177 0 0 Z " fill="#2D3467" transform="translate(572.4921875,344.83203125)"/>
<path d="M0 0 C0.33 0 0.66 0 1 0 C1.35047238 6.42532694 0.30961507 11.03715349 -2 17 C-2.39058594 18.09183594 -2.78117188 19.18367187 -3.18359375 20.30859375 C-7.95906626 33.09279069 -14.64792939 45.18315307 -23 56 C-23.66 56 -24.32 56 -25 56 C-25.22429688 56.53882813 -25.44859375 57.07765625 -25.6796875 57.6328125 C-27.42247839 60.75746126 -29.71018867 63.26443733 -32.125 65.875 C-32.61202393 66.40512695 -33.09904785 66.93525391 -33.60083008 67.48144531 C-37.37875416 71.51271764 -41.36368684 74.9711192 -46 78 C-46.66 76.68 -47.32 75.36 -48 74 C-45.36 72.68 -42.72 71.36 -40 70 C-40 68.35 -40 66.7 -40 65 C-36.25 63.875 -36.25 63.875 -34 65 C-33.67 62.36 -33.34 59.72 -33 57 C-27.375 55 -27.375 55 -24 55 C-23.91995518 51.4780279 -23.95994298 48.38018531 -25 45 C-22 43 -22 43 -18 43 C-18 42.01 -18 41.02 -18 40 C-17.34 40 -16.68 40 -16 40 C-15.855625 39.38125 -15.71125 38.7625 -15.5625 38.125 C-15 36 -15 36 -14 34 C-14.99 33.505 -14.99 33.505 -16 33 C-15.38125 32.938125 -14.7625 32.87625 -14.125 32.8125 C-11.74397155 32.17948312 -11.74397155 32.17948312 -10.8125 29.5625 C-10.544375 28.716875 -10.27625 27.87125 -10 27 C-9.67 26.34 -9.34 25.68 -9 25 C-8.93003986 23.29297265 -8.91559846 21.58331997 -8.9375 19.875 C-8.94652344 18.96492187 -8.95554687 18.05484375 -8.96484375 17.1171875 C-8.97644531 16.41851563 -8.98804688 15.71984375 -9 15 C-8.34 15 -7.68 15 -7 15 C-6.34 14.34 -5.68 13.68 -5 13 C-5 13.66 -5 14.32 -5 15 C-4.34 15 -3.68 15 -3 15 C-3 13.68 -3 12.36 -3 11 C-3.66 10.67 -4.32 10.34 -5 10 C-5 9.34 -5 8.68 -5 8 C-3.68 7.67 -2.36 7.34 -1 7 C-0.67 4.69 -0.34 2.38 0 0 Z " fill="#818BE5" transform="translate(801,520)"/>
<path d="M0 0 C16.41278636 -0.04691738 32.82555065 -0.08208487 49.23838806 -0.10362434 C56.86077123 -0.11389552 64.48311249 -0.12787535 72.10546875 -0.15087891 C78.75643476 -0.17094117 85.40737039 -0.18374657 92.05836582 -0.18817699 C95.57336251 -0.19076286 99.08827237 -0.19675173 102.60324097 -0.21146011 C130.71622788 -0.32472602 130.71622788 -0.32472602 144 2 C144 2.33 144 2.66 144 3 C110.34 3 76.68 3 42 3 C42 2.67 42 2.34 42 2 C28.14 1.67 14.28 1.34 0 1 C0 0.67 0 0.34 0 0 Z " fill="#7F88D6" transform="translate(536,348)"/>
<path d="M0 0 C2.00451121 0.30503431 4.00448218 0.64080679 6 1 C6.99 1 7.98 1 9 1 C9.66 1 10.32 1 11 1 C11.99 0.67 12.98 0.34 14 0 C14 0.66 14 1.32 14 2 C14.66 2 15.32 2 16 2 C16 1.34 16 0.68 16 0 C16.66 0.33 17.32 0.66 18 1 C18.99 1.33 19.98 1.66 21 2 C21.99 1.34 22.98 0.68 24 0 C24.33 0.66 24.66 1.32 25 2 C24.67 2.99 24.34 3.98 24 5 C24.99 5 25.98 5 27 5 C27 8.3 27 11.6 27 15 C25.35 15 23.7 15 22 15 C22 13.35 22 11.7 22 10 C20.68 9.67 19.36 9.34 18 9 C18 8.34 18 7.68 18 7 C19.32 7.33 20.64 7.66 22 8 C22 7.34 22 6.68 22 6 C20.02 6 18.04 6 16 6 C16.56371414 9.26954202 17.49962266 10.82575883 20 13 C19.05125 13.12375 18.1025 13.2475 17.125 13.375 C13.91332809 13.71687177 13.91332809 13.71687177 12 16 C11.67 13.03 11.34 10.06 11 7 C8.36 6.67 5.72 6.34 3 6 C3 8.97 3 11.94 3 15 C2.01 15.33 1.02 15.66 0 16 C-1 14 -1 14 -0.9375 11.0625 C-0.72907405 7.82398066 -0.72907405 7.82398066 -3 5 C-5.05925139 4.27617533 -5.05925139 4.27617533 -7 4 C-6.030625 3.525625 -5.06125 3.05125 -4.0625 2.5625 C-1.19522563 1.29806053 -1.19522563 1.29806053 0 0 Z " fill="#181823" transform="translate(513,1096)"/>
<path d="M0 0 C24.70387816 -0.49080553 52.89617921 10.49344623 72 26 C72 26.66 72 27.32 72 28 C69.74202176 27.49822706 67.79756729 26.90699038 65.6875 25.9375 C62.36114093 24.77714219 59.4972821 24.86285168 56 25 C56 23.02 56 21.04 56 19 C52.37 17.68 48.74 16.36 45 15 C45 14.34 45 13.68 45 13 C44.01 13.33 43.02 13.66 42 14 C40.65009646 13.02248365 39.31963709 12.01800576 38 11 C35.02496878 9.84164327 35.02496878 9.84164327 32 9 C31.40316406 8.81695312 30.80632813 8.63390625 30.19140625 8.4453125 C27.39766625 7.87760063 24.785701 7.94353009 21.9375 8 C18.53950501 8.06720386 16.23902028 8.07967343 13 7 C13 6.34 13 5.68 13 5 C14.32 5 15.64 5 17 5 C17 4.34 17 3.68 17 3 C16.38511719 3.01160156 15.77023437 3.02320313 15.13671875 3.03515625 C14.32847656 3.04417969 13.52023437 3.05320312 12.6875 3.0625 C11.48673828 3.07990234 11.48673828 3.07990234 10.26171875 3.09765625 C8 3 8 3 5 2 C3.33637583 1.65179959 1.67004829 1.31595508 0 1 C0 0.67 0 0.34 0 0 Z " fill="#7782DD" transform="translate(680,351)"/>
<path d="M0 0 C0.99 0 1.98 0 3 0 C3 9.55745495 -4.48030261 16.59488839 -10.6875 23.1875 C-20.15071052 32.31739683 -32.92072845 39.74903841 -46 42 C-45.67 40.35 -45.34 38.7 -45 37 C-43.35 37 -41.7 37 -40 37 C-39.34 35.68 -38.68 34.36 -38 33 C-36.88625 33.020625 -35.7725 33.04125 -34.625 33.0625 C-31.16784079 33.26380718 -31.16784079 33.26380718 -29 32 C-27.515 32.495 -27.515 32.495 -26 33 C-25.67 32.01 -25.34 31.02 -25 30 C-23.4765625 28.6484375 -23.4765625 28.6484375 -21.625 27.375 C-21.01914062 26.94960938 -20.41328125 26.52421875 -19.7890625 26.0859375 C-18 25 -18 25 -15 24 C-14.87625 23.360625 -14.7525 22.72125 -14.625 22.0625 C-14.315625 21.0415625 -14.315625 21.0415625 -14 20 C-11.4375 18.75 -11.4375 18.75 -9 18 C-9 17.34 -9 16.68 -9 16 C-8.01 16 -7.02 16 -6 16 C-5.96132813 15.11248047 -5.96132813 15.11248047 -5.921875 14.20703125 C-5.53980478 8.88409838 -4.843523 5.96363309 -1 2 C-0.67 1.34 -0.34 0.68 0 0 Z " fill="#BEC4F0" transform="translate(614,808)"/>
<path d="M0 0 C0.99 0.33 1.98 0.66 3 1 C3 4.3 3 7.6 3 11 C1.68 11 0.36 11 -1 11 C-1 10.34 -1 9.68 -1 9 C-1.66 9 -2.32 9 -3 9 C-3.12375 9.53625 -3.2475 10.0725 -3.375 10.625 C-3.84627689 12.41585219 -4.40322405 14.18447064 -5 15.9375 C-5.87898244 18.62938373 -6.46084899 21.22722335 -7 24 C-7.33 24.66 -7.66 25.32 -8 26 C-7.01 26.33 -6.02 26.66 -5 27 C-5.33 27.99 -5.66 28.98 -6 30 C-6.66 30 -7.32 30 -8 30 C-8.433125 31.2065625 -8.433125 31.2065625 -8.875 32.4375 C-10 35 -10 35 -12 36 C-12.43040224 38.28948258 -12.43040224 38.28948258 -12.5625 40.9375 C-12.90619765 45.81239531 -12.90619765 45.81239531 -14 48 C-14.144375 49.175625 -14.28875 50.35125 -14.4375 51.5625 C-14.623125 52.696875 -14.80875 53.83125 -15 55 C-15.99 55.495 -15.99 55.495 -17 56 C-17.26579295 49.05154478 -16.66002219 42.80895912 -15 36.0625 C-14.78287354 35.16587646 -14.56574707 34.26925293 -14.34204102 33.34545898 C-11.34344536 21.64364732 -7.03964964 9.89313792 0 0 Z " fill="#C9CEF5" transform="translate(493,708)"/>
<path d="M0 0 C9.375 0 9.375 0 14 1 C14.33 2.32 14.66 3.64 15 5 C15.99 5 16.98 5 18 5 C18 4.01 18 3.02 18 2 C18.66 2.33 19.32 2.66 20 3 C19.67 3.99 19.34 4.98 19 6 C19.66 5.67 20.32 5.34 21 5 C21 3.68 21 2.36 21 1 C21.66 1 22.32 1 23 1 C23 1.99 23 2.98 23 4 C24.32 4.33 25.64 4.66 27 5 C25.7934375 5.5259375 25.7934375 5.5259375 24.5625 6.0625 C21.6132233 7.85667284 21.6132233 7.85667284 21.1875 11.6875 C21.0946875 13.3271875 21.0946875 13.3271875 21 15 C20.01 15 19.02 15 18 15 C18 12.03 18 9.06 18 6 C17.01 6 16.02 6 15 6 C15 8.97 15 11.94 15 15 C13.35 15.33 11.7 15.66 10 16 C10.33 11.38 10.66 6.76 11 2 C10.34 2 9.68 2 9 2 C9 3.65 9 5.3 9 7 C7.02 7 5.04 7 3 7 C2.15545644 10.37817425 1.89155081 12.67465243 3 16 C1.35 15.67 -0.3 15.34 -2 15 C-2 10.71 -2 6.42 -2 2 C-1.34 2 -0.68 2 0 2 C0 1.34 0 0.68 0 0 Z " fill="#111320" transform="translate(563,1096)"/>
<path d="M0 0 C0.99 0 1.98 0 3 0 C4.55078125 1.9140625 4.55078125 1.9140625 6.3125 4.625 C13.70497271 15.14296669 22.74584136 24.4750344 34.0859375 30.66796875 C34.71757812 31.10753906 35.34921875 31.54710937 36 32 C36 32.99 36 33.98 36 35 C34.375 35.6875 34.375 35.6875 32 36 C28.75 34.5625 28.75 34.5625 26 33 C26.33 32.01 26.66 31.02 27 30 C23.35206816 28.72746564 19.8063457 27.67170806 16 27 C16.12375 25.948125 16.2475 24.89625 16.375 23.8125 C16.39234523 19.79393498 16.39234523 19.79393498 13.1875 17.25 C12.135625 16.5075 11.08375 15.765 10 15 C9.484375 14.4225 8.96875 13.845 8.4375 13.25 C6.45046494 11.52214343 4.56402241 11.34648952 2 11 C2 10.01 2 9.02 2 8 C1.67 7.360625 1.34 6.72125 1 6.0625 C0 4 0 4 0 0 Z " fill="#303561" transform="translate(448,500)"/>
<path d="M0 0 C0.66 0 1.32 0 2 0 C2.66 1.65 3.32 3.3 4 5 C0.71303767 5.79953138 -0.71023192 6.09658936 -4 5 C-3.95875 5.928125 -3.9175 6.85625 -3.875 7.8125 C-4 11 -4 11 -6 14 C-6.66 13.67 -7.32 13.34 -8 13 C-8.99 13.33 -9.98 13.66 -11 14 C-12.22969878 17.51190809 -12.22969878 17.51190809 -13 21 C-15.64 21.66 -18.28 22.32 -21 23 C-21.33 22.01 -21.66 21.02 -22 20 C-20.9609375 18.16796875 -20.9609375 18.16796875 -19.375 16.1875 C-18.53582031 15.13175781 -18.53582031 15.13175781 -17.6796875 14.0546875 C-17.12539063 13.37664063 -16.57109375 12.69859375 -16 12 C-15.56945312 11.44570313 -15.13890625 10.89140625 -14.6953125 10.3203125 C-11.7881018 6.65304671 -8.77604251 3.73160522 -5 1 C-3.68 1 -2.36 1 -1 1 C-0.67 0.67 -0.34 0.34 0 0 Z " fill="#C5CAF7" transform="translate(524,674)"/>
<path d="M0 0 C6.625 -0.25 6.625 -0.25 10 2 C11.01868662 2.98095748 12.02351983 3.97702078 13 5 C12.360625 5.185625 11.72125 5.37125 11.0625 5.5625 C10.381875 6.036875 9.70125 6.51125 9 7 C8.835 8.155 8.67 9.31 8.5 10.5 C8.335 11.655 8.17 12.81 8 14 C6.125 15.3125 6.125 15.3125 4 16 C3.01 16.66 2.02 17.32 1 18 C1 17.34 1 16.68 1 16 C0.0925 16.20625 -0.815 16.4125 -1.75 16.625 C-5.12036846 17.01388867 -6.28161375 16.91293847 -9 15 C-10.39935013 12.20129973 -10.25265405 10.09501208 -10 7 C-8.875 5.125 -8.875 5.125 -7 4 C-2.92205575 3.57521414 -1.46923881 3.68717413 2 6 C2.1875 9.625 2.1875 9.625 2 13 C1.34 13 0.68 13 0 13 C-0.33 11.02 -0.66 9.04 -1 7 C-2.66611905 6.957279 -4.33382885 6.95936168 -6 7 C-6.33 7.33 -6.66 7.66 -7 8 C-7 9.65 -7 11.3 -7 13 C-3.7 13.33 -0.4 13.66 3 14 C3.33292585 9.75519536 3.43885872 7.64457375 1 4.0625 C0.34 3.381875 -0.32 2.70125 -1 2 C-0.67 1.34 -0.34 0.68 0 0 Z " fill="#141423" transform="translate(609,1096)"/>
<path d="M0 0 C1.32 1.65 2.64 3.3 4 5 C2.37681021 5.36237263 0.7513642 5.71465157 -0.875 6.0625 C-2.23238281 6.35833984 -2.23238281 6.35833984 -3.6171875 6.66015625 C-6 7 -6 7 -8 6 C-8 8.97 -8 11.94 -8 15 C-7.01 15.33 -6.02 15.66 -5 16 C-5.78375 16.268125 -6.5675 16.53625 -7.375 16.8125 C-10.28114923 17.84814432 -10.28114923 17.84814432 -12 21 C-13.875 21.2578125 -13.875 21.2578125 -16 21.125 C-19.11735621 20.9143627 -19.11735621 20.9143627 -22 22 C-21.67 20.68 -21.34 19.36 -21 18 C-19.865625 17.690625 -18.73125 17.38125 -17.5625 17.0625 C-14.21224901 16.37075469 -14.21224901 16.37075469 -13 15 C-12.76712992 13.31816052 -12.58735834 11.6287584 -12.4375 9.9375 C-12.35371094 9.01839844 -12.26992188 8.09929687 -12.18359375 7.15234375 C-12.12300781 6.44207031 -12.06242188 5.73179688 -12 5 C-12.66 5 -13.32 5 -14 5 C-16 3 -16 3 -17 1 C-15.68 1.33 -14.36 1.66 -13 2 C-13 2.66 -13 3.32 -13 4 C-11.02 4 -9.04 4 -7 4 C-6.67 3.01 -6.34 2.02 -6 1 C-4.02 0.67 -2.04 0.34 0 0 Z " fill="#151523" transform="translate(638,1096)"/>
<path d="M0 0 C0.763125 0.350625 1.52625 0.70125 2.3125 1.0625 C5.04759379 2.32360884 5.04759379 2.32360884 8 1 C8.99 1 9.98 1 11 1 C12.67099977 0.68911632 14.33871537 0.35919668 16 0 C16.5625 1.9375 16.5625 1.9375 17 4 C16.67 4.33 16.34 4.66 16 5 C15.95684856 7.67538915 15.95319559 10.32694821 16 13 C16 13.99 16 14.98 16 16 C15.34 16 14.68 16 14 16 C12.59216816 13.37204724 11.49227666 10.95365998 11 8 C11.33 7.34 11.66 6.68 12 6 C11.34 6 10.68 6 10 6 C9.34 7.98 8.68 9.96 8 12 C6 9 6 9 6 6 C5.01 6 4.02 6 3 6 C2.67 6.99 2.34 7.98 2 9 C1.34 9 0.68 9 0 9 C-0.33 7.68 -0.66 6.36 -1 5 C-2.98 5 -4.96 5 -7 5 C-7 4.01 -7 3.02 -7 2 C-5.1875 1.3125 -5.1875 1.3125 -3 1 C-1.25 2.4375 -1.25 2.4375 0 4 C0.33 3.34 0.66 2.68 1 2 C0.34 1.67 -0.32 1.34 -1 1 C-0.67 0.67 -0.34 0.34 0 0 Z " fill="#141420" transform="translate(488,1096)"/>
<path d="M0 0 C0.66 0 1.32 0 2 0 C0.54463913 3.61086832 -1.22952901 5.16187625 -4.4375 7.3125 C-5.33984375 7.9209375 -6.2421875 8.529375 -7.171875 9.15625 C-10.73081214 11.47644106 -14.31057551 13.76064235 -17.90625 16.0234375 C-24.00159189 19.91768371 -29.99314352 23.97110976 -36 28 C-36.66 27.34 -37.32 26.68 -38 26 C-37.3125 24.0625 -37.3125 24.0625 -36 22 C-33.4375 21.375 -33.4375 21.375 -31 21 C-30.67 20.34 -30.34 19.68 -30 19 C-27.41225673 17.48304705 -24.92528027 16.62684577 -22 16 C-22.33 15.01 -22.66 14.02 -23 13 C-21.80375 12.608125 -20.6075 12.21625 -19.375 11.8125 C-14.72107341 10.07657712 -10.30201046 7.60402092 -8 3 C-5.67793475 2.29508733 -3.34406932 1.62787571 -1 1 C-0.67 0.67 -0.34 0.34 0 0 Z " fill="#919AE6" transform="translate(751,598)"/>
<path d="M0 0 C0.66 0.66 1.32 1.32 2 2 C1.61328125 2.8971875 1.2265625 3.794375 0.828125 4.71875 C-3.08350372 14.01075605 -5.75074696 23.17485378 -8 33 C-8.65566006 35.66955583 -9.32704084 38.33472753 -10 41 C-11.65 41 -13.3 41 -15 41 C-15.49586777 34.67768595 -15.49586777 34.67768595 -13.125 31.4375 C-12.42375 30.633125 -11.7225 29.82875 -11 29 C-8.87512612 24.1600095 -8.26400165 18.99591155 -7.46484375 13.8046875 C-7.08111655 11.48942591 -6.61184654 9.26329073 -6 7 C-4.35 6.67 -2.7 6.34 -1 6 C-1.33 4.35 -1.66 2.7 -2 1 C-1.34 0.67 -0.68 0.34 0 0 Z M-13 34 C-13.33 34.99 -13.66 35.98 -14 37 C-13.01 38.485 -13.01 38.485 -12 40 C-12 38.02 -12 36.04 -12 34 C-12.33 34 -12.66 34 -13 34 Z " fill="#B0B6EC" transform="translate(640,703)"/>
<path d="M0 0 C0 1.32 0 2.64 0 4 C0.66 3.67 1.32 3.34 2 3 C2.65213292 0.97536745 2.65213292 0.97536745 3 -1 C4.32 -0.67 5.64 -0.34 7 0 C7 4.62 7 9.24 7 14 C6.01 14.495 6.01 14.495 5 15 C4.34 14.67 3.68 14.34 3 14 C3 11.03 3 8.06 3 5 C2.01 5 1.02 5 0 5 C0 8.3 0 11.6 0 15 C-1.32 14.67 -2.64 14.34 -4 14 C-4.33 10.7 -4.66 7.4 -5 4 C-6.98 4 -8.96 4 -11 4 C-8.64216311 -0.71567378 -4.72624179 -1.48539028 0 0 Z " fill="#141624" transform="translate(660,1097)"/>
<path d="M0 0 C0.66 0 1.32 0 2 0 C1.979375 0.78375 1.95875 1.5675 1.9375 2.375 C1.81315937 4.98114961 1.81315937 4.98114961 3 7 C2.67 7.33 2.34 7.66 2 8 C2.33 8 2.66 8 3 8 C3 9.65 3 11.3 3 13 C1.9275 13.144375 0.855 13.28875 -0.25 13.4375 C-2.99200276 14.17722894 -3.80950845 14.69971506 -5.35546875 17.13671875 C-6.34017332 19.40118377 -7.22363746 21.65644601 -8 24 C-7.34 24.33 -6.68 24.66 -6 25 C-7.375 27 -7.375 27 -9 29 C-9.66 29 -10.32 29 -11 29 C-12.62469636 23.1352424 -11.49617336 20.06013682 -8.63085938 14.77734375 C-8.15455078 13.94332031 -7.67824219 13.10929688 -7.1875 12.25 C-6.72279297 11.40050781 -6.25808594 10.55101562 -5.77929688 9.67578125 C-3.9546256 6.36152897 -2.09967168 3.14950752 0 0 Z " fill="#D2D5F3" transform="translate(421,658)"/>
<path d="M0 0 C2.97 0 5.94 0 9 0 C9 0.66 9 1.32 9 2 C9.99 2.33 10.98 2.66 12 3 C10.7315625 4.0209375 10.7315625 4.0209375 9.4375 5.0625 C6.64996831 7.81341789 6.64996831 7.81341789 6.875 11.5 C8.16652645 15.51808228 9.81038698 17.30109668 13 20 C12.01 20 11.02 20 10 20 C7.65789079 20.63514826 5.32315031 21.2986716 3 22 C3 22.66 3 23.32 3 24 C2.34 23.67 1.68 23.34 1 23 C0.375 20.4375 0.375 20.4375 0 18 C0.99 18 1.98 18 3 18 C3 13.71 3 9.42 3 5 C2.01 4.67 1.02 4.34 0 4 C0 2.68 0 1.36 0 0 Z " fill="#131423" transform="translate(591,1096)"/>
<path d="M0 0 C3 1 3 1 5 2 C5.625 4.0625 5.625 4.0625 6 6 C4.2984375 6.2165625 4.2984375 6.2165625 2.5625 6.4375 C-0.80777201 6.61171478 -0.80777201 6.61171478 -2 8 C-2.04092937 10.33297433 -2.04241723 12.66705225 -2 15 C-3.32 15 -4.64 15 -6 15 C-6 14.01 -6 13.02 -6 12 C-7.98 12.33 -9.96 12.66 -12 13 C-12.33 11.68 -12.66 10.36 -13 9 C-11.125 7.9375 -11.125 7.9375 -9 7 C-8.34 7.33 -7.68 7.66 -7 8 C-7 7.01 -7 6.02 -7 5 C-8.32 4.67 -9.64 4.34 -11 4 C-10.34 3.01 -9.68 2.02 -9 1 C-7.88625 1.20625 -6.7725 1.4125 -5.625 1.625 C-4.42875 1.74875 -3.2325 1.8725 -2 2 C-1.34 1.34 -0.68 0.68 0 0 Z M-6 3 C-5 5 -5 5 -5 5 Z " fill="#1A1A2A" transform="translate(694,1096)"/>
<path d="M0 0 C1.65 0 3.3 0 5 0 C5.33 0.66 5.66 1.32 6 2 C5.154375 2.56847656 4.30875 3.13695312 3.4375 3.72265625 C-5.7914993 9.980667 -13.90606865 16.3099341 -21 25 C-23.046875 21.28125 -23.046875 21.28125 -22.625 18.75 C-22.41875 18.1725 -22.2125 17.595 -22 17 C-20.68 17.33 -19.36 17.66 -18 18 C-18 17.34 -18 16.68 -18 16 C-17.01 16 -16.02 16 -15 16 C-15 13.69 -15 11.38 -15 9 C-14.01 9 -13.02 9 -12 9 C-9.8817921 8.76230794 -9.8817921 8.76230794 -8 8 C-7.67 7.01 -7.34 6.02 -7 5 C-6.34 5 -5.68 5 -5 5 C-4.67 4.34 -4.34 3.68 -4 3 C-3.01 3 -2.02 3 -1 3 C-0.67 2.01 -0.34 1.02 0 0 Z " fill="#373B6E" transform="translate(479,360)"/>
<path d="M0 0 C2.64 0 5.28 0 8 0 C7.649375 0.61875 7.29875 1.2375 6.9375 1.875 C6.4734375 2.926875 6.4734375 2.926875 6 4 C6.33 4.66 6.66 5.32 7 6 C6.67 6.66 6.34 7.32 6 8 C7.093125 7.95875 8.18625 7.9175 9.3125 7.875 C13 8 13 8 16 10 C15.01 10.33 14.02 10.66 13 11 C13 11.66 13 12.32 13 13 C13.66 13 14.32 13 15 13 C15.99 14.485 15.99 14.485 17 16 C18.96128755 16.8237956 18.96128755 16.8237956 21 17 C21.66 16.67 22.32 16.34 23 16 C23.59732819 18.76264289 24 21.16032769 24 24 C14.90524249 19.74896728 4.88217923 11.44674356 0.74609375 2.1953125 C0.49988281 1.47085938 0.25367188 0.74640625 0 0 Z " fill="#D1D5F0" transform="translate(488,816)"/>
<path d="M0 0 C3.53217579 0.32110689 6.63449506 0.87816502 10 2 C9.34 2 8.68 2 8 2 C8 2.66 8 3.32 8 4 C7.07441284 4.05945801 7.07441284 4.05945801 6.13012695 4.12011719 C-6.28283745 4.95063065 -18.39635462 6.1529921 -30.57299805 8.76660156 C-31.39195557 8.94030273 -32.21091309 9.11400391 -33.0546875 9.29296875 C-34.12952393 9.53309692 -34.12952393 9.53309692 -35.22607422 9.77807617 C-37 10 -37 10 -39 9 C-35.79619983 6.86413322 -34.98060033 6.76867825 -31.3125 6.875 C-30.10013672 6.90207031 -30.10013672 6.90207031 -28.86328125 6.9296875 C-27.94095703 6.96449219 -27.94095703 6.96449219 -27 7 C-27 6.01 -27 5.02 -27 4 C-21.25 2.875 -21.25 2.875 -19 4 C-18.67 3.01 -18.34 2.02 -18 1 C-17.67 1.66 -17.34 2.32 -17 3 C-15.33388095 3.042721 -13.66617115 3.04063832 -12 3 C-11.67 2.67 -11.34 2.34 -11 2 C-8.70356092 1.96854193 -6.42349871 2.0680779 -4.12890625 2.16015625 C-1.78152676 2.21623944 -1.78152676 2.21623944 0 0 Z " fill="#373D72" transform="translate(541,344)"/>
<path d="M0 0 C2.00451121 0.30503431 4.00448218 0.64080679 6 1 C6.99 1 7.98 1 9 1 C9.66 1 10.32 1 11 1 C11.99 0.67 12.98 0.34 14 0 C13.67 1.65 13.34 3.3 13 5 C9.7 5.33 6.4 5.66 3 6 C3 8.97 3 11.94 3 15 C2.01 15.33 1.02 15.66 0 16 C-1 14 -1 14 -0.9375 11.0625 C-0.72907405 7.82398066 -0.72907405 7.82398066 -3 5 C-5.05925139 4.27617533 -5.05925139 4.27617533 -7 4 C-6.030625 3.525625 -5.06125 3.05125 -4.0625 2.5625 C-1.19522563 1.29806053 -1.19522563 1.29806053 0 0 Z " fill="#12111E" transform="translate(513,1096)"/>
<path d="M0 0 C0.70769531 0.10828125 1.41539062 0.2165625 2.14453125 0.328125 C1.48453125 1.648125 0.82453125 2.968125 0.14453125 4.328125 C0.80453125 4.328125 1.46453125 4.328125 2.14453125 4.328125 C2.14453125 4.988125 2.14453125 5.648125 2.14453125 6.328125 C0.96890625 6.451875 0.96890625 6.451875 -0.23046875 6.578125 C-2.97830027 7.05135653 -2.97830027 7.05135653 -4.10546875 9.265625 C-4.35296875 9.94625 -4.60046875 10.626875 -4.85546875 11.328125 C-5.18546875 11.988125 -5.51546875 12.648125 -5.85546875 13.328125 C-6.84546875 13.328125 -7.83546875 13.328125 -8.85546875 13.328125 C-9.51546875 14.648125 -10.17546875 15.968125 -10.85546875 17.328125 C-13.33046875 16.338125 -13.33046875 16.338125 -15.85546875 15.328125 C-14.24047313 11.36146908 -11.50601021 8.57658129 -8.54296875 5.578125 C-7.83237305 4.81822266 -7.83237305 4.81822266 -7.10742188 4.04296875 C-4.749095 1.64915405 -3.39422761 0.39003436 0 0 Z " fill="#1A1D36" transform="translate(612.85546875,822.671875)"/>
<path d="M0 0 C6.75 1.625 6.75 1.625 9 5 C11.00920638 5.48609832 13.01949914 5.96906028 15.0390625 6.41015625 C17.84092983 7.25294901 19.16410246 8.77069584 21 11 C23.88870344 14.26143936 25.62558844 15.51395427 30 16 C30 16.66 30 17.32 30 18 C30.66 18 31.32 18 32 18 C32 18.66 32 19.32 32 20 C31.34 20 30.68 20 30 20 C29.67 20.66 29.34 21.32 29 22 C27.2925002 20.71937515 25.62626404 19.38232443 24 18 C24 17.34 24 16.68 24 16 C23.30519531 15.74992187 22.61039063 15.49984375 21.89453125 15.2421875 C18.59081311 13.82439753 15.72236075 12.0513188 12.6875 10.125 C7.90820088 7.12292428 3.10825538 4.40388488 -2 2 C-1.34 1.34 -0.68 0.68 0 0 Z " fill="#293164" transform="translate(728,361)"/>
<path d="M0 0 C0.99 0.33 1.98 0.66 3 1 C-4.81965137 6.74625896 -13.34130194 11.36084139 -23 13 C-22.67 11.35 -22.34 9.7 -22 8 C-20.35 8 -18.7 8 -17 8 C-16.34 6.68 -15.68 5.36 -15 4 C-13.88625 4.020625 -12.7725 4.04125 -11.625 4.0625 C-8.16784079 4.26380718 -8.16784079 4.26380718 -6 3 C-5.01 3.33 -4.02 3.66 -3 4 C-2.67 3.01 -2.34 2.02 -2 1 C-1.34 0.67 -0.68 0.34 0 0 Z " fill="#C7CCF2" transform="translate(591,837)"/>
<path d="M0 0 C0.66 0 1.32 0 2 0 C2.33 1.32 2.66 2.64 3 4 C-7.395 8.455 -7.395 8.455 -18 13 C-18 12.01 -18 11.02 -18 10 C-19.32 9.67 -20.64 9.34 -22 9 C-21.28972656 8.87882813 -20.57945312 8.75765625 -19.84765625 8.6328125 C-18.92855469 8.46523438 -18.00945313 8.29765625 -17.0625 8.125 C-16.14597656 7.96257813 -15.22945312 7.80015625 -14.28515625 7.6328125 C-13.53105469 7.42398438 -12.77695312 7.21515625 -12 7 C-11.67 6.34 -11.34 5.68 -11 5 C-10.34 5 -9.68 5 -9 5 C-9 4.01 -9 3.02 -9 2 C-5.62182575 1.15545644 -3.32534757 0.89155081 0 2 C0 1.34 0 0.68 0 0 Z " fill="#292C54" transform="translate(531,561)"/>
<path d="M0 0 C0.99 0.33 1.98 0.66 3 1 C2.67 1.33 2.34 1.66 2 2 C3.32 2.33 4.64 2.66 6 3 C2.96172351 6.27199006 -0.25824014 8.57886127 -4 11 C-6.34705946 12.64813632 -8.67250878 14.32420632 -11 16 C-11.66 15.34 -12.32 14.68 -13 14 C-12.625 11.375 -12.625 11.375 -12 9 C-11.34 9 -10.68 9 -10 9 C-9.01 8.67 -8.02 8.34 -7 8 C-5.66893378 7.65772583 -4.33599921 7.32248257 -3 7 C-3 6.34 -3 5.68 -3 5 C-3.66 4.67 -4.32 4.34 -5 4 C-2.6875 1.9375 -2.6875 1.9375 0 0 Z " fill="#BCC3F3" transform="translate(526,641)"/>
<path d="M0 0 C0.66 0 1.32 0 2 0 C2 4.29 2 8.58 2 13 C0.72125 13.061875 -0.5575 13.12375 -1.875 13.1875 C-2.59429688 13.22230469 -3.31359375 13.25710938 -4.0546875 13.29296875 C-4.69664062 13.19628906 -5.33859375 13.09960938 -6 13 C-8 10 -8 10 -7.6875 7.375 C-7 5 -7 5 -6 4 C-4.33382885 3.95936168 -2.66611905 3.957279 -1 4 C-0.67 2.68 -0.34 1.36 0 0 Z " fill="#7A7C88" transform="translate(572,1098)"/>
<path d="M0 0 C2.05078125 0.03255208 4.1015625 0.06510417 6.15234375 0.09765625 C6.23365838 1.53421479 6.29167934 2.97210455 6.33984375 4.41015625 C6.37464844 5.21066406 6.40945313 6.01117187 6.4453125 6.8359375 C6.15234375 9.09765625 6.15234375 9.09765625 4.80859375 10.87890625 C2.54696668 12.5431224 0.88902554 12.31954937 -1.84765625 12.09765625 C-2.17765625 11.43765625 -2.50765625 10.77765625 -2.84765625 10.09765625 C-0.86765625 9.76765625 1.11234375 9.43765625 3.15234375 9.09765625 C3.15234375 8.76765625 3.15234375 8.43765625 3.15234375 8.09765625 C2.36859375 8.13890625 1.58484375 8.18015625 0.77734375 8.22265625 C-1.84765625 8.09765625 -1.84765625 8.09765625 -3.84765625 6.09765625 C-3.12417691 0.16512563 -3.12417691 0.16512563 0 0 Z " fill="#797A87" transform="translate(619.84765625,1101.90234375)"/>
<path d="M0 0 C0.33 0 0.66 0 1 0 C2.23302355 5.78041439 2.19117826 11.49345782 2.1875 17.375 C2.18814453 18.43396484 2.18878906 19.49292969 2.18945312 20.58398438 C2.13202811 29.19251548 1.39880895 37.50723135 0 46 C-1.485 46.495 -1.485 46.495 -3 47 C-2.80083984 45.68128906 -2.80083984 45.68128906 -2.59765625 44.3359375 C-0.60848287 29.61315057 -0.35864035 14.83400626 0 0 Z " fill="#303874" transform="translate(807,474)"/>
<path d="M0 0 C2.05078125 0.03255208 4.1015625 0.06510417 6.15234375 0.09765625 C6.15234375 4.05765625 6.15234375 8.01765625 6.15234375 12.09765625 C5.49234375 12.09765625 4.83234375 12.09765625 4.15234375 12.09765625 C3.82234375 11.10765625 3.49234375 10.11765625 3.15234375 9.09765625 C2.34796875 8.95328125 1.54359375 8.80890625 0.71484375 8.66015625 C-1.84765625 8.09765625 -1.84765625 8.09765625 -2.84765625 7.09765625 C-2.97265625 4.09765625 -2.97265625 4.09765625 -2.84765625 1.09765625 C-1.84765625 0.09765625 -1.84765625 0.09765625 0 0 Z " fill="#7B7C89" transform="translate(587.84765625,1101.90234375)"/>
<path d="M0 0 C0.66 0 1.32 0 2 0 C2 4.29 2 8.58 2 13 C-1.375 13.1875 -1.375 13.1875 -5 13 C-7 10 -7 10 -6.6875 7.375 C-6 5 -6 5 -5 4 C-3.33382885 3.95936168 -1.66611905 3.957279 0 4 C0 2.68 0 1.36 0 0 Z " fill="#858793" transform="translate(558,1098)"/>
<path d="M0 0 C1.875 0.3125 1.875 0.3125 4 1 C6.56687367 4.8503105 5.83288724 6.58569763 5 11 C3.35425434 11.02688151 1.70838587 11.04634123 0.0625 11.0625 C-0.85402344 11.07410156 -1.77054688 11.08570313 -2.71484375 11.09765625 C-5 11 -5 11 -6 10 C-6.1875 7.5625 -6.1875 7.5625 -6 5 C-4 3 -4 3 -0.875 2.875 C0.07375 2.91625 1.0225 2.9575 2 3 C2 5.31 2 7.62 2 10 C2.66 10 3.32 10 4 10 C3.67495741 5.17805357 3.67495741 5.17805357 1.4375 1.0625 C0.963125 0.711875 0.48875 0.36125 0 0 Z " fill="#585967" transform="translate(607,1099)"/>
<path d="M0 0 C6.18505263 0.74422946 12.34118753 1.62704084 18.5 2.5625 C19.4178125 2.70107422 20.335625 2.83964844 21.28125 2.98242188 C23.52097131 3.32071312 25.7605492 3.6599234 28 4 C28 4.33 28 4.66 28 5 C27.31292969 5.06058594 26.62585938 5.12117187 25.91796875 5.18359375 C24.56638672 5.30927734 24.56638672 5.30927734 23.1875 5.4375 C21.84751953 5.55931641 21.84751953 5.55931641 20.48046875 5.68359375 C17.87256441 5.93489767 17.87256441 5.93489767 15 7 C14.34 6.34 13.68 5.68 13 5 C12.0925 5.37125 11.185 5.7425 10.25 6.125 C7 7 7 7 4.8125 6.0625 C4.214375 5.711875 3.61625 5.36125 3 5 C2.01 5.33 1.02 5.66 0 6 C0 4.02 0 2.04 0 0 Z " fill="#191C33" transform="translate(528,849)"/>
<path d="M0 0 C5.622291 -0.13866637 10.74029768 0.2856292 16.25 1.375 C17.29027344 1.56449219 17.29027344 1.56449219 18.3515625 1.7578125 C21.8480254 2.42763298 24.92322392 3.17613789 28 5 C28 5.99 28 6.98 28 8 C26.06257659 8.02703381 24.12504521 8.04641125 22.1875 8.0625 C21.10855469 8.07410156 20.02960937 8.08570313 18.91796875 8.09765625 C16 8 16 8 13 7 C13 6.34 13 5.68 13 5 C14.32 5 15.64 5 17 5 C17 4.34 17 3.68 17 3 C16.38511719 3.01160156 15.77023437 3.02320313 15.13671875 3.03515625 C14.32847656 3.04417969 13.52023437 3.05320312 12.6875 3.0625 C11.48673828 3.07990234 11.48673828 3.07990234 10.26171875 3.09765625 C8 3 8 3 5 2 C3.33637583 1.65179959 1.67004829 1.31595508 0 1 C0 0.67 0 0.34 0 0 Z " fill="#828CE5" transform="translate(680,351)"/>
<path d="M0 0 C4.66666667 4 9.33333333 8 14 12 C13.34 12.66 12.68 13.32 12 14 C11.34 13.67 10.68 13.34 10 13 C10 13.66 10 14.32 10 15 C8.68 15 7.36 15 6 15 C5.01 15.495 5.01 15.495 4 16 C4.57344937 13.13275314 4.8614515 12.1385485 7 10 C6.01 10 5.02 10 4 10 C4 9.01 4 8.02 4 7 C1.36 7 -1.28 7 -4 7 C-4 6.01 -4 5.02 -4 4 C-3.01 4 -2.02 4 -1 4 C-0.67 2.68 -0.34 1.36 0 0 Z " fill="#1A1E35" transform="translate(492,824)"/>
<path d="M0 0 C0.66 0 1.32 0 2 0 C2.33 1.65 2.66 3.3 3 5 C3.99 5.33 4.98 5.66 6 6 C7.84114389 9.68228779 7.92717315 13.98566037 8.5 18.03125 C8.83750116 20.91871431 8.83750116 20.91871431 10 23 C10.07116382 25.37402501 10.08409085 27.75000677 10.0625 30.125 C10.05347656 31.40632813 10.04445313 32.68765625 10.03515625 34.0078125 C10.02355469 34.99523437 10.01195312 35.98265625 10 37 C9.67 37 9.34 37 9 37 C8.90501221 36.44763672 8.81002441 35.89527344 8.7121582 35.32617188 C6.60146278 23.2306971 4.00739598 11.61159408 0 0 Z " fill="#202859" transform="translate(798,437)"/>
<path d="M0 0 C0.721875 0.41894531 1.44375 0.83789062 2.1875 1.26953125 C3.57195312 2.07197266 3.57195312 2.07197266 4.984375 2.890625 C6.44617188 3.78974609 6.44617188 3.78974609 7.9375 4.70703125 C9.41476562 5.60228516 9.41476562 5.60228516 10.921875 6.515625 C11.66953125 7.09441406 12.4171875 7.67320312 13.1875 8.26953125 C13.1875 9.25953125 13.1875 10.24953125 13.1875 11.26953125 C11.5625 11.95703125 11.5625 11.95703125 9.1875 12.26953125 C5.9375 10.83203125 5.9375 10.83203125 3.1875 9.26953125 C3.5175 8.27953125 3.8475 7.28953125 4.1875 6.26953125 C0.53956816 4.99699689 -3.0061543 3.94123931 -6.8125 3.26953125 C-6.8125 2.60953125 -6.8125 1.94953125 -6.8125 1.26953125 C-2.36619928 -0.95361911 -2.36619928 -0.95361911 0 0 Z " fill="#2B2E57" transform="translate(470.8125,523.73046875)"/>
<path d="M0 0 C2.9375 0.1875 2.9375 0.1875 3.9375 1.1875 C4.125 4.125 4.125 4.125 3.9375 7.1875 C1.9375 9.1875 1.9375 9.1875 -0.5625 9.4375 C-3.0625 9.1875 -3.0625 9.1875 -5.0625 7.1875 C-5.3125 4.6875 -5.3125 4.6875 -5.0625 2.1875 C-3.0625 0.1875 -3.0625 0.1875 0 0 Z " fill="#7C7C89" transform="translate(508.0625,1101.8125)"/>
<path d="M0 0 C2.475 0.99 2.475 0.99 5 2 C5 3.32 5 4.64 5 6 C5.66 6 6.32 6 7 6 C7.33 6.66 7.66 7.32 8 8 C8.66 7.34 9.32 6.68 10 6 C10.06058594 6.62648438 10.12117187 7.25296875 10.18359375 7.8984375 C10.26738281 8.71570313 10.35117187 9.53296875 10.4375 10.375 C10.55931641 11.59316406 10.55931641 11.59316406 10.68359375 12.8359375 C10.89090114 15.04272805 10.89090114 15.04272805 12 17 C11.01 18.32 10.02 19.64 9 21 C8.68869141 19.948125 8.68869141 19.948125 8.37109375 18.875 C6.10236955 11.88846856 3.24169475 7.13862772 -2 2 C-1.34 1.34 -0.68 0.68 0 0 Z " fill="#292C56" transform="translate(595,563)"/>
<path d="M0 0 C0.94875 0.185625 1.8975 0.37125 2.875 0.5625 C5.89868793 1.28686632 5.89868793 1.28686632 8 0 C10.00800456 0.28112064 12.01014051 0.61067967 14 1 C12 3 12 3 9.67147827 3.24050903 C8.6988504 3.23606781 7.72622253 3.23162659 6.72412109 3.22705078 C5.6231308 3.22689972 4.5221405 3.22674866 3.38778687 3.22659302 C2.19505157 3.21627045 1.00231628 3.20594788 -0.2265625 3.1953125 C-1.44451508 3.1924826 -2.66246765 3.18965271 -3.91732788 3.18673706 C-7.81998383 3.17551256 -11.72241303 3.15040372 -15.625 3.125 C-18.26562169 3.11497314 -20.90624697 3.10584678 -23.546875 3.09765625 C-30.0313278 3.07556581 -36.5156477 3.04206592 -43 3 C-43 2.67 -43 2.34 -43 2 C-28.81 2 -14.62 2 0 2 C0 1.34 0 0.68 0 0 Z " fill="#232B61" transform="translate(608,345)"/>
<path d="M0 0 C2.14576637 -0.02685938 4.29162645 -0.04633088 6.4375 -0.0625 C7.63246094 -0.07410156 8.82742188 -0.08570313 10.05859375 -0.09765625 C13 0 13 0 14 1 C14.14115161 3.67058851 14.04247107 6.32432238 14 9 C13.34 9 12.68 9 12 9 C12 6.69 12 4.38 12 2 C10.68 2 9.36 2 8 2 C8 4.31 8 6.62 8 9 C7.34 9 6.68 9 6 9 C6 6.69 6 4.38 6 2 C4.68 2 3.36 2 2 2 C2 4.31 2 6.62 2 9 C1.34 9 0.68 9 0 9 C0 6.03 0 3.06 0 0 Z " fill="#828493" transform="translate(704,1102)"/>
<path d="M0 0 C2.5 0.25 2.5 0.25 4.5 2.25 C3.93181818 7.81818182 3.93181818 7.81818182 2.5 9.25 C0.0625 9.4375 0.0625 9.4375 -2.5 9.25 C-4.5 7.25 -4.5 7.25 -4.75 4.75 C-4.40058445 1.25584452 -3.49415548 0.34941555 0 0 Z " fill="#828391" transform="translate(695.5,1101.75)"/>
<path d="M0 0 C4.29 0 8.58 0 13 0 C14.4783226 2.95664519 14.06032783 5.74229737 14 9 C13.34 9 12.68 9 12 9 C12 6.69 12 4.38 12 2 C10.68 2 9.36 2 8 2 C8 4.31 8 6.62 8 9 C7.34 9 6.68 9 6 9 C6 6.69 6 4.38 6 2 C4.68 2 3.36 2 2 2 C2 4.31 2 6.62 2 9 C1.34 9 0.68 9 0 9 C0 6.03 0 3.06 0 0 Z " fill="#7E7F8C" transform="translate(630,1102)"/>
<path d="M0 0 C0.66 0.66 1.32 1.32 2 2 C1.3503125 2.69867187 0.700625 3.39734375 0.03125 4.1171875 C-1.22171875 5.48230469 -1.22171875 5.48230469 -2.5 6.875 C-3.3353125 7.77992188 -4.170625 8.68484375 -5.03125 9.6171875 C-7.21231559 11.74181632 -7.21231559 11.74181632 -7 14 C-9.33214148 15.20628008 -11.49642139 16.1654738 -14 17 C-14.66 16.34 -15.32 15.68 -16 15 C-5.62642369 4.44191344 -5.62642369 4.44191344 0 0 Z " fill="#2A2D54" transform="translate(687,645)"/>
<path d="M0 0 C-0.33 2.31 -0.66 4.62 -1 7 C-2.6045556 6.85851011 -4.20863767 6.71164314 -5.8125 6.5625 C-6.70582031 6.48128906 -7.59914063 6.40007813 -8.51953125 6.31640625 C-11 6 -11 6 -14 5 C-13 2 -13 2 -11.07421875 1.015625 C-9.89279297 0.63664063 -9.89279297 0.63664063 -8.6875 0.25 C-7.51767578 -0.14445313 -7.51767578 -0.14445313 -6.32421875 -0.546875 C-3.83078909 -1.03298902 -2.3818103 -0.80665429 0 0 Z " fill="#ADB4ED" transform="translate(593,641)"/>
<path d="M0 0 C6.38559578 1.74152612 11.54352961 7.51031174 15 13 C15 13.66 15 14.32 15 15 C13.68 15.33 12.36 15.66 11 16 C10.7525 15.2575 10.505 14.515 10.25 13.75 C8.90224257 10.78493365 7.39830763 9.16621335 5 7 C4.67 6.67 4.34 6.34 4 6 C3.01 6 2.02 6 1 6 C1 4.68 1 3.36 1 2 C0.34 1.67 -0.32 1.34 -1 1 C-0.67 0.67 -0.34 0.34 0 0 Z " fill="#A8ADED" transform="translate(586,560)"/>
<path d="M0 0 C0.33 0.66 0.66 1.32 1 2 C1.66 2 2.32 2 3 2 C3 1.34 3 0.68 3 0 C3.66 0 4.32 0 5 0 C4.773125 0.763125 4.54625 1.52625 4.3125 2.3125 C3.72656413 4.95347851 3.72656413 4.95347851 5.0625 6.75 C7.63507013 8.40972267 9.9871402 8.6652378 13 9 C13 9.99 13 10.98 13 12 C10 14 10 14 8.05078125 13.9296875 C5.13884924 12.60961166 3.98765589 10.7399633 2.1875 8.125 C1.56230469 7.24070312 0.93710937 6.35640625 0.29296875 5.4453125 C-0.13371094 4.63835937 -0.56039063 3.83140625 -1 3 C-0.67 2.01 -0.34 1.02 0 0 Z " fill="#B9BFF2" transform="translate(450,496)"/>
<path d="M0 0 C1.04974883 3.67043327 0.78945783 6.16967281 0.0625 9.9375 C-0.65916719 13.71788907 -1.00667804 17.1601254 -1 21 C-1.33 21.66 -1.66 22.32 -2 23 C-2.2165625 24.7634375 -2.2165625 24.7634375 -2.4375 26.5625 C-2.7159375 28.2640625 -2.7159375 28.2640625 -3 30 C-3.66 30.33 -4.32 30.66 -5 31 C-5.36386669 23.56296925 -4.36687654 17.05995188 -2.5 9.875 C-2.26152344 8.91851563 -2.02304687 7.96203125 -1.77734375 6.9765625 C-1.19525501 4.64820754 -0.60273122 2.32308002 0 0 Z " fill="#BEC2E1" transform="translate(481,733)"/>
<path d="M0 0 C0.33 1.65 0.66 3.3 1 5 C-0.98 5.66 -2.96 6.32 -5 7 C-6 6 -6 6 -7 3 C-7.66 3 -8.32 3 -9 3 C-9 3.99 -9 4.98 -9 6 C-12.37462715 5.45276317 -14.08235 4.9451 -17 3 C-15.10614563 2.49255577 -13.20981334 1.99435426 -11.3125 1.5 C-9.72888672 1.08234375 -9.72888672 1.08234375 -8.11328125 0.65625 C-5.28857328 0.0608285 -2.87163292 -0.12786492 0 0 Z " fill="#191C34" transform="translate(575,849)"/>
<path d="M0 0 C0.66 0 1.32 0 2 0 C2 1.65 2 3.3 2 5 C1.236875 5.268125 0.47375 5.53625 -0.3125 5.8125 C-4.49029791 7.65850373 -6.15478757 9.88375688 -8 14 C-8.66 13.67 -9.32 13.34 -10 13 C-11.66619446 12.9603287 -13.33391013 12.95615553 -15 13 C-12.28707375 10.18797142 -9.48585138 7.73675005 -6.375 5.375 C-4.10909628 3.65110647 -2.01421889 2.01421889 0 0 Z " fill="#ADB4EF" transform="translate(614,625)"/>
<path d="M0 0 C0.61875 0.350625 1.2375 0.70125 1.875 1.0625 C2.57625 1.371875 3.2775 1.68125 4 2 C4.66 1.67 5.32 1.34 6 1 C6.66 1.33 7.32 1.66 8 2 C8 2.66 8 3.32 8 4 C8.99 3.67 9.98 3.34 11 3 C13 9.75 13 9.75 13 12 C8.942959 11.46960703 7.05155434 9.42356448 4.25 6.5625 C3.45078125 5.75941406 2.6515625 4.95632813 1.828125 4.12890625 C0 2 0 2 0 0 Z " fill="#BCC1F5" transform="translate(460,511)"/>
<path d="M0 0 C-0.66 2.64 -1.32 5.28 -2 8 C-3.79133978 8.05391993 -5.58313899 8.09275571 -7.375 8.125 C-8.37273438 8.14820313 -9.37046875 8.17140625 -10.3984375 8.1953125 C-13 8 -13 8 -15 6 C-12.87717331 4.99539469 -10.75166979 3.99644398 -8.625 3 C-7.44164062 2.443125 -6.25828125 1.88625 -5.0390625 1.3125 C-2 0 -2 0 0 0 Z " fill="#B4BBF1" transform="translate(529,567)"/>
<path d="M0 0 C0.79792969 -0.00773438 1.59585938 -0.01546875 2.41796875 -0.0234375 C9.57208837 0.00044938 9.57208837 0.00044938 12.875 2.25 C10.8835944 2.63133299 8.88220923 2.96325582 6.875 3.25 C6.545 2.92 6.215 2.59 5.875 2.25 C4.28757845 2.34112976 2.70374221 2.49833118 1.125 2.6875 C-1.55150776 3.0040331 -4.11948701 3.250008 -6.81640625 3.24609375 C-9.13420996 3.14493818 -9.13420996 3.14493818 -11.3125 3.875 C-11.910625 3.99875 -12.50875 4.1225 -13.125 4.25 C-13.785 3.59 -14.445 2.93 -15.125 2.25 C-9.96322715 0.15873512 -5.4730169 -0.0535695 0 0 Z " fill="#A9AFEB" transform="translate(569.125,555.75)"/>
<path d="M0 0 C0.99 0 1.98 0 3 0 C3 1.32 3 2.64 3 4 C4.8871875 4.2475 4.8871875 4.2475 6.8125 4.5 C7.87404297 4.63921875 7.87404297 4.63921875 8.95703125 4.78125 C11.15471706 5.053233 11.15471706 5.053233 14 5 C14 5.99 14 6.98 14 8 C15.43750191 9.68798827 15.43750191 9.68798827 17 11 C14 12 14 12 10.64453125 10.34765625 C9.36110983 9.59622298 8.08393866 8.83403499 6.8125 8.0625 C5.83120117 7.48338867 5.83120117 7.48338867 4.83007812 6.89257812 C3.21464684 5.93746912 1.60659475 4.96989934 0 4 C0 2.68 0 1.36 0 0 Z " fill="#B3BAEC" transform="translate(477,525)"/>
<path d="M0 0 C0.33 0.66 0.66 1.32 1 2 C0.360625 2.5775 -0.27875 3.155 -0.9375 3.75 C-3.03928669 6.04285821 -3.41385929 7.06312654 -4 10 C-5.45463481 10.38909985 -6.91391207 10.76088029 -8.375 11.125 C-9.18710937 11.33382812 -9.99921875 11.54265625 -10.8359375 11.7578125 C-11.55007813 11.83773437 -12.26421875 11.91765625 -13 12 C-13.66 11.34 -14.32 10.68 -15 10 C-13.43902526 8.8936781 -11.87614673 7.79004215 -10.3125 6.6875 C-9.44238281 6.07261719 -8.57226562 5.45773437 -7.67578125 4.82421875 C-5.16749048 3.11418694 -2.61897801 1.53363577 0 0 Z " fill="#B7BEEE" transform="translate(499,581)"/>
<path d="M0 0 C-3.40219265 2.74792483 -7.48464588 6 -12 6 C-12.66 3.69 -13.32 1.38 -14 -1 C-8.51053913 -2.12029814 -5.16569441 -1.79217969 0 0 Z " fill="#B6BDF3" transform="translate(551,634)"/>
<path d="M0 0 C0.66 0.99 1.32 1.98 2 3 C-0.3439244 8.27710354 -2.66965806 12.15080717 -7 16 C-9.125 11.375 -9.125 11.375 -8 8 C-6.02 7.67 -4.04 7.34 -2 7 C-1.34 4.69 -0.68 2.38 0 0 Z " fill="#A8AFEB" transform="translate(601,601)"/>
<path d="M0 0 C-1.48963955 3.78268021 -3.5696505 5.45489085 -6.875 7.75 C-7.73867188 8.36359375 -8.60234375 8.9771875 -9.4921875 9.609375 C-12 11 -12 11 -16 11 C-16 9 -16 9 -14.0625 6.625 C-10.52323712 3.19761037 -5.0190157 0 0 0 Z " fill="#8A94E2" transform="translate(753,598)"/>
<path d="M0 0 C-4.455 1.485 -4.455 1.485 -9 3 C-9.33 4.98 -9.66 6.96 -10 9 C-11.65 9.33 -13.3 9.66 -15 10 C-15.99 8.68 -16.98 7.36 -18 6 C-14.9140223 2.39969269 -12.46909347 1.24289985 -7.875 0.1875 C-6.29332031 -0.19341797 -6.29332031 -0.19341797 -4.6796875 -0.58203125 C-2 -1 -2 -1 0 0 Z " fill="#BAC0F5" transform="translate(578,646)"/>
<path d="M0 0 C3.14259957 4.71389935 3.15786482 8.42588845 3.1875 14.0625 C3.20167969 15.29097656 3.21585938 16.51945313 3.23046875 17.78515625 C3 21 3 21 1 24 C0 23 0 23 -0.0625 20.125 C-0.041875 19.09375 -0.02125 18.0625 0 17 C0 12.87664516 -0.4762011 8.8164703 -0.87890625 4.71484375 C-1 2 -1 2 0 0 Z " fill="#A4AAE5" transform="translate(602,577)"/>
<path d="M0 0 C0.78375 0.04125 1.5675 0.0825 2.375 0.125 C2.705 1.775 3.035 3.425 3.375 5.125 C1.395 5.125 -0.585 5.125 -2.625 5.125 C-2.625 5.785 -2.625 6.445 -2.625 7.125 C-0.645 7.125 1.335 7.125 3.375 7.125 C3.045 7.785 2.715 8.445 2.375 9.125 C0 9.25 0 9.25 -2.625 9.125 C-4.625 7.125 -4.625 7.125 -4.875 4.625 C-4.51649553 1.03995533 -3.59522993 0.17120143 0 0 Z " fill="#656570" transform="translate(543.625,1101.875)"/>
<path d="M0 0 C1.65 0.99 3.3 1.98 5 3 C5.99 2.01 6.98 1.02 8 0 C8.12375 0.804375 8.2475 1.60875 8.375 2.4375 C8.58125 3.283125 8.7875 4.12875 9 5 C9.66 5.33 10.32 5.66 11 6 C10.34 7.98 9.68 9.96 9 12 C7 11 7 11 5.625 8.5 C4.25389904 5.84694477 4.25389904 5.84694477 1.8125 5.1875 C1.214375 5.125625 0.61625 5.06375 0 5 C0 3.35 0 1.7 0 0 Z " fill="#11121E" transform="translate(541,1096)"/>
<path d="M0 0 C1.32 0.33 2.64 0.66 4 1 C3.72285156 1.99 3.44570313 2.98 3.16015625 4 C1.33054253 10.63276937 -0.43812658 17.11705055 -1 24 C-1.33 23.34 -1.66 22.68 -2 22 C-2.66 21.67 -3.32 21.34 -4 21 C-3.67 20.67 -3.34 20.34 -3 20 C-2.90145345 18.35659133 -2.87027589 16.7088539 -2.875 15.0625 C-2.87242187 14.16660156 -2.86984375 13.27070313 -2.8671875 12.34765625 C-2.84578587 9.97844445 -2.84578587 9.97844445 -4 8 C-3.01 7.67 -2.02 7.34 -1 7 C-0.67 4.69 -0.34 2.38 0 0 Z " fill="#33396A" transform="translate(437,416)"/>
<path d="M0 0 C0.66 0.33 1.32 0.66 2 1 C1.34 2.65 0.68 4.3 0 6 C-0.66 6 -1.32 6 -2 6 C-2.33 8.31 -2.66 10.62 -3 13 C-4.65 13 -6.3 13 -8 13 C-8 8.21861363 -7.16772988 7.615713 -4 4.25 C-3.2575 3.45078125 -2.515 2.6515625 -1.75 1.828125 C-1.1725 1.22484375 -0.595 0.6215625 0 0 Z " fill="#ADB3F1" transform="translate(463,379)"/>
<path d="M0 0 C3.30805499 3.72654388 4.65011245 7.99619913 6.25 12.625 C6.53101563 13.40101563 6.81203125 14.17703125 7.1015625 14.9765625 C7.79823689 16.96311919 8.40621684 18.98030095 9 21 C8.67 21.66 8.34 22.32 8 23 C7.01 22.67 6.02 22.34 5 22 C5 19.69 5 17.38 5 15 C4.34 15 3.68 15 3 15 C3.061875 14.236875 3.12375 13.47375 3.1875 12.6875 C3.30738253 9.96508434 3.30738253 9.96508434 1.5 8.625 C0 7 0 7 -0.1875 3.3125 C-0.125625 2.219375 -0.06375 1.12625 0 0 Z " fill="#6D77D1" transform="translate(795,432)"/>
<path d="M0 0 C0.7109375 1.640625 0.7109375 1.640625 1 4 C-0.3984375 6.796875 -0.3984375 6.796875 -2.375 9.75 C-3.02210938 10.73484375 -3.66921875 11.7196875 -4.3359375 12.734375 C-4.88507813 13.48203125 -5.43421875 14.2296875 -6 15 C-6.33 15 -6.66 15 -7 15 C-7.125 11.625 -7.125 11.625 -7 8 C-6.34 7.34 -5.68 6.68 -5 6 C-5.3185177 3.89179203 -5.3185177 3.89179203 -6 2 C-2.25 0 -2.25 0 0 0 Z " fill="#33396C" transform="translate(455,384)"/>
<path d="M0 0 C2.475 0.99 2.475 0.99 5 2 C0.57557408 5.71080883 -4.17403931 8.84577733 -9 12 C-9.66 11.67 -10.32 11.34 -11 11 C-9.96368671 8.17369103 -9.39919994 7.18909471 -6.625 5.875 C-5.75875 5.58625 -4.8925 5.2975 -4 5 C-2.65949948 4.34786461 -1.32338632 3.68620031 0 3 C0 2.01 0 1.02 0 0 Z " fill="#9AA2E8" transform="translate(707,625)"/>
<path d="M0 0 C2.64 0.33 5.28 0.66 8 1 C8 3 8 3 6.875 4.6875 C5 6 5 6 2.1875 5.75 C1.135625 5.5025 0.08375 5.255 -1 5 C-3 4.66666667 -5 4.33333333 -7 4 C-6.34 3.01 -5.68 2.02 -5 1 C-3.68 1.66 -2.36 2.32 -1 3 C-0.67 2.01 -0.34 1.02 0 0 Z " fill="#28305C" transform="translate(683,345)"/>
<path d="M0 0 C-0.625 2.4375 -0.625 2.4375 -2 5 C-4.8125 6.0625 -4.8125 6.0625 -8 6 C-10.875 4.0625 -10.875 4.0625 -13 2 C-11.5882217 1.46605821 -10.17029756 0.94834896 -8.75 0.4375 C-7.96109375 0.14746094 -7.1721875 -0.14257812 -6.359375 -0.44140625 C-3.80896548 -1.04522837 -2.44677771 -0.8473932 0 0 Z " fill="#A6AFE7" transform="translate(553,560)"/>
<path d="M0 0 C0 3 0 3 0 3 Z M-2 3 C-1.67 3.66 -1.34 4.32 -1 5 C-0.01 5.33 0.98 5.66 2 6 C1.67 6.99 1.34 7.98 1 9 C0.34 9 -0.32 9 -1 9 C-1.66 10.65 -2.32 12.3 -3 14 C-3.66 14 -4.32 14 -5 14 C-4.8864371 12.35333797 -4.75882619 10.70763918 -4.625 9.0625 C-4.55539062 8.14597656 -4.48578125 7.22945312 -4.4140625 6.28515625 C-4.27742188 5.53105469 -4.14078125 4.77695312 -4 4 C-3.34 3.67 -2.68 3.34 -2 3 Z " fill="#D1D5F9" transform="translate(486,729)"/>
<path d="M0 0 C0.33 0 0.66 0 1 0 C1.26065293 4.69879734 0.51329452 7.98768289 -1.3125 12.3125 C-1.95638672 13.88451172 -1.95638672 13.88451172 -2.61328125 15.48828125 C-4 18 -4 18 -7 19 C-6.33392561 14.59041892 -4.73375271 10.73427814 -2.9375 6.6875 C-2.65583984 6.04232422 -2.37417969 5.39714844 -2.08398438 4.73242188 C-1.3937257 3.15301642 -0.69746802 1.57623507 0 0 Z " fill="#C2C6E6" transform="translate(489,714)"/>
<path d="M0 0 C0.99 0 1.98 0 3 0 C3.05401695 2.91691525 3.09368066 5.83282724 3.125 8.75 C3.15013672 9.9875 3.15013672 9.9875 3.17578125 11.25 C3.18222656 12.04921875 3.18867187 12.8484375 3.1953125 13.671875 C3.20578613 14.4050293 3.21625977 15.13818359 3.22705078 15.89355469 C2.96777544 18.29896076 2.19225925 19.91251494 1 22 C0.83034345 19.6460153 0.6642065 17.29186616 0.5 14.9375 C0.4071875 13.62652344 0.314375 12.31554687 0.21875 10.96484375 C0.0165098 7.29924005 -0.0381804 3.67009048 0 0 Z " fill="#B8BEEF" transform="translate(624,760)"/>
<path d="M0 0 C0.99 0 1.98 0 3 0 C3.66 1.32 4.32 2.64 5 4 C5.66 2.68 6.32 1.36 7 0 C7.66 0 8.32 0 9 0 C8.54738642 1.43931117 8.08767021 2.87638999 7.625 4.3125 C7.36976563 5.11300781 7.11453125 5.91351562 6.8515625 6.73828125 C6 9 6 9 4 12 C3.01 12 2.02 12 1 12 C1 11.34 1 10.68 1 10 C1.66 10 2.32 10 3 10 C2.01 6.7 1.02 3.4 0 0 Z " fill="#7C7B87" transform="translate(491,1102)"/>
<path d="M0 0 C1.99954746 -0.04254356 4.00041636 -0.04080783 6 0 C7 1 7 1 7.0625 4.5625 C7.041875 5.696875 7.02125 6.83125 7 8 C6.34 8 5.68 8 5 8 C5 7.01 5 6.02 5 5 C3.68 5 2.36 5 1 5 C1 5.99 1 6.98 1 8 C1.66 8.33 2.32 8.66 3 9 C1.68 8.67 0.36 8.34 -1 8 C-0.625 6.0625 -0.625 6.0625 0 4 C0.66 3.67 1.32 3.34 2 3 C1.34 2.67 0.68 2.34 0 2 C0 1.34 0 0.68 0 0 Z " fill="#7E7F8D" transform="translate(649,1102)"/>
<path d="M0 0 C3.21524305 1.40844718 5.32183868 3.10344786 7.75 5.625 C8.67039062 6.57246094 8.67039062 6.57246094 9.609375 7.5390625 C10.29773438 8.26222656 10.29773438 8.26222656 11 9 C10.01 10.485 10.01 10.485 9 12 C8.01 12 7.02 12 6 12 C5.95875 11.278125 5.9175 10.55625 5.875 9.8125 C4.61647835 5.76725183 2.36410883 4.50518743 -1 2 C-0.67 1.34 -0.34 0.68 0 0 Z " fill="#3A3E6B" transform="translate(459,513)"/>
<path d="M0 0 C1.98 0 3.96 0 6 0 C6 0.66 6 1.32 6 2 C7.32 2.33 8.64 2.66 10 3 C10 4.65 10 6.3 10 8 C9.01 7.34 8.02 6.68 7 6 C3.87478167 5.83300768 3.87478167 5.83300768 1 6 C0.67 4.02 0.34 2.04 0 0 Z " fill="#181929" transform="translate(710,1097)"/>
<path d="M0 0 C-0.52393706 5.86809507 -1.76108858 10.54873741 -4 16 C-4.99 15.34 -5.98 14.68 -7 14 C-6.67 12.68 -6.34 11.36 -6 10 C-5.34 10 -4.68 10 -4 10 C-3.34 8.02 -2.68 6.04 -2 4 C-2.66 4 -3.32 4 -4 4 C-4 3.34 -4 2.68 -4 2 C-1 0 -1 0 0 0 Z " fill="#BCC3F3" transform="translate(624,790)"/>
<path d="M0 0 C0.66 0.66 1.32 1.32 2 2 C1.64638402 6.5970078 0.58012426 10.68099369 -1 15 C-1.66 14.34 -2.32 13.68 -3 13 C-3.99 13 -4.98 13 -6 13 C-5.47599609 11.96939453 -5.47599609 11.96939453 -4.94140625 10.91796875 C-4.48636719 10.01691406 -4.03132812 9.11585938 -3.5625 8.1875 C-3.11003906 7.29417969 -2.65757812 6.40085937 -2.19140625 5.48046875 C-0.9168395 2.96000522 -0.9168395 2.96000522 0 0 Z " fill="#2C315B" transform="translate(603,601)"/>
<path d="M0 0 C-0.33 1.32 -0.66 2.64 -1 4 C-0.01 4.66 0.98 5.32 2 6 C0.5437328 6.36256858 -0.91511185 6.71479793 -2.375 7.0625 C-3.59316406 7.35833984 -3.59316406 7.35833984 -4.8359375 7.66015625 C-7 8 -7 8 -9 7 C-9 6.01 -9 5.02 -9 4 C-2.25 0 -2.25 0 0 0 Z " fill="#B5BBEE" transform="translate(510,576)"/>
<path d="M0 0 C0.66 0 1.32 0 2 0 C2 0.66 2 1.32 2 2 C2.66 2 3.32 2 4 2 C4.33 3.32 4.66 4.64 5 6 C6.65 6 8.3 6 10 6 C6.25 9 6.25 9 4 9 C3.67 10.65 3.34 12.3 3 14 C2.02983736 11.08951208 1.47000425 8.33002409 0.9375 5.3125 C0.76089844 4.31863281 0.58429687 3.32476563 0.40234375 2.30078125 C0.26957031 1.54152344 0.13679687 0.78226563 0 0 Z " fill="#141523" transform="translate(643,1098)"/>
<path d="M0 0 C1.4606285 2.64738916 2 3.89448334 2 7 C1.34 7 0.68 7 0 7 C-0.33 7.99 -0.66 8.98 -1 10 C-1.33 9.34 -1.66 8.68 -2 8 C-2.99 8.33 -3.98 8.66 -5 9 C-5 7.35 -5 5.7 -5 4 C-4.360625 3.71125 -3.72125 3.4225 -3.0625 3.125 C-0.84793921 2.17176549 -0.84793921 2.17176549 0 0 Z " fill="#B4BCF7" transform="translate(445,413)"/>
<path d="M0 0 C4.21814817 3.9700218 7.61227103 8.30840284 11 13 C9.68 13.33 8.36 13.66 7 14 C6.34 12.35 5.68 10.7 5 9 C4.01 9.33 3.02 9.66 2 10 C2 8.68 2 7.36 2 6 C1.38001259 3.98504093 0.72045764 1.9812585 0 0 Z " fill="#747DD9" transform="translate(773,398)"/>
<path d="M0 0 C1.485 0.99 1.485 0.99 3 2 C3 2.66 3 3.32 3 4 C4.65 4.33 6.3 4.66 8 5 C8.33 6.65 8.66 8.3 9 10 C8.1646875 9.2265625 8.1646875 9.2265625 7.3125 8.4375 C5.05914993 6.70523302 5.05914993 6.70523302 2.25 7.3125 C1.5075 7.539375 0.765 7.76625 0 8 C-0.79953138 4.71303767 -1.09658936 3.28976808 0 0 Z " fill="#7683F2" transform="translate(777,408)"/>
<path d="M0 0 C1.99954746 -0.04254356 4.00041636 -0.04080783 6 0 C7 1 7 1 7.09765625 2.84765625 C7.04882812 5.92382812 7.04882812 5.92382812 7 9 C6.01 8.34 5.02 7.68 4 7 C4.33 6.34 4.66 5.68 5 5 C3.68 5 2.36 5 1 5 C1 5.99 1 6.98 1 8 C0.34 8 -0.32 8 -1 8 C-1 6.68 -1 5.36 -1 4 C0.98 4 2.96 4 5 4 C5 3.34 5 2.68 5 2 C3.35 2 1.7 2 0 2 C0 1.34 0 0.68 0 0 Z " fill="#7F7F89" transform="translate(481,1102)"/>
<path d="M0 0 C2 2 2 2 2.1953125 4.1640625 C2.16050781 5.38222656 2.16050781 5.38222656 2.125 6.625 C2.10695313 7.44226563 2.08890625 8.25953125 2.0703125 9.1015625 C2.04710937 9.72804688 2.02390625 10.35453125 2 11 C2.66 11 3.32 11 4 11 C3.67 13.97 3.34 16.94 3 20 C1 19 1 19 0 16 C-0.07051114 13.26134713 -0.09357765 10.54972412 -0.0625 7.8125 C-0.05798828 7.06291016 -0.05347656 6.31332031 -0.04882812 5.54101562 C-0.03706354 3.69397617 -0.01912865 1.84697787 0 0 Z " fill="#D7DCF8" transform="translate(476,765)"/>
<path d="M0 0 C0.66 0.33 1.32 0.66 2 1 C1.67 2.32 1.34 3.64 1 5 C-0.175625 5.12375 -0.175625 5.12375 -1.375 5.25 C-4.14749104 5.72806339 -4.14749104 5.72806339 -5.3125 8.0625 C-5.539375 8.701875 -5.76625 9.34125 -6 10 C-7.32 9.67 -8.64 9.34 -10 9 C-9.00310405 6.50776013 -8.38477686 5.23583098 -6.0625 3.8125 C-4.39484226 3.15554392 -2.70041355 2.56680452 -1 2 C-0.67 1.34 -0.34 0.68 0 0 Z " fill="#1D2241" transform="translate(677,658)"/>
<path d="M0 0 C0.66 0 1.32 0 2 0 C2 0.66 2 1.32 2 2 C4.31 1.34 6.62 0.68 9 0 C8.07456291 1.34173403 7.13422595 2.67320159 6.1875 4 C5.66542969 4.7425 5.14335938 5.485 4.60546875 6.25 C4.07566406 6.8275 3.54585937 7.405 3 8 C2.01 8 1.02 8 0 8 C-1.09658936 4.71023192 -0.79953138 3.28696233 0 0 Z " fill="#A0A8E8" transform="translate(666,656)"/>
<path d="M0 0 C-3.3621637 3.65882521 -6.36050852 6.14420341 -11 8 C-11.66 7.67 -12.32 7.34 -13 7 C-12 5 -12 5 -10 3 C-9.01 3 -8.02 3 -7 3 C-7 2.34 -7 1.68 -7 1 C-4.53721199 -0.231394 -2.7204945 -0.07159196 0 0 Z " fill="#2C2F57" transform="translate(611,628)"/>
<path d="M0 0 C-2.85276137 2.93200474 -5.65079784 5.64315404 -9 8 C-9.66 7.67 -10.32 7.34 -11 7 C-10.8125 5.1875 -10.8125 5.1875 -10 3 C-6.62712264 0.37665094 -4.24348127 -0.36372697 0 0 Z " fill="#303359" transform="translate(471,601)"/>
<path d="M0 0 C7 0 7 0 10 1 C7.0094833 4.33557632 4.06815373 6.15083921 0 8 C0 5.33333333 0 2.66666667 0 0 Z " fill="#2C3055" transform="translate(481,585)"/>
<path d="M0 0 C1.98 0 3.96 0 6 0 C6 0.66 6 1.32 6 2 C4.68 1.67 3.36 1.34 2 1 C2.33 1.66 2.66 2.32 3 3 C3.99 3.33 4.98 3.66 6 4 C6 5.65 6 7.3 6 9 C4.02 9 2.04 9 0 9 C-0.33 8.34 -0.66 7.68 -1 7 C0.32 6.67 1.64 6.34 3 6 C2.01 5.34 1.02 4.68 0 4 C0 2.68 0 1.36 0 0 Z " fill="#74747F" transform="translate(529,1102)"/>
<path d="M0 0 C2.42130331 3.63195496 2.21022785 5.38349348 2.125 9.6875 C2.10695313 10.86699219 2.08890625 12.04648437 2.0703125 13.26171875 C2.03550781 14.61716797 2.03550781 14.61716797 2 16 C-1.21207971 12.12126224 -2.04086428 8.98544198 -2 4 C-1.0625 1.5 -1.0625 1.5 0 0 Z " fill="#191B34" transform="translate(475,783)"/>
<path d="M0 0 C1.65 0.33 3.3 0.66 5 1 C4.67 3.31 4.34 5.62 4 8 C2.35 8.33 0.7 8.66 -1 9 C-0.7215625 8.1028125 -0.7215625 8.1028125 -0.4375 7.1875 C0.22093687 4.83591238 0.22093687 4.83591238 -1 2 C-0.67 1.34 -0.34 0.68 0 0 Z " fill="#D2D5F9" transform="translate(466,712)"/>
<path d="M0 0 C0.89203125 0.11085938 1.7840625 0.22171875 2.703125 0.3359375 C3.37859375 0.43132812 4.0540625 0.52671875 4.75 0.625 C1.84091772 2.56438819 -0.65862379 3.59274957 -3.9375 4.75 C-5.42830078 5.27980469 -5.42830078 5.27980469 -6.94921875 5.8203125 C-7.70847656 6.08585937 -8.46773438 6.35140625 -9.25 6.625 C-9.25 4.975 -9.25 3.325 -9.25 1.625 C-5.9353333 -0.40407167 -3.8184021 -0.50242133 0 0 Z " fill="#353B6F" transform="translate(497.25,353.375)"/>
<path d="M0 0 C-3.67613156 1.31918597 -6.167465 0.65329851 -9.875 -0.375 C-13.90708329 -1.47840898 -17.86547246 -2.37056446 -22 -3 C-22 -3.33 -22 -3.66 -22 -4 C-14.2619273 -5.89152888 -6.93305542 -3.718196 0 0 Z " fill="#323974" transform="translate(710,355)"/>
<path d="M0 0 C0.99 0.33 1.98 0.66 3 1 C3 1.66 3 2.32 3 3 C3.66 3 4.32 3 5 3 C5 4.32 5 5.64 5 7 C5.66 7 6.32 7 7 7 C7.66 10.3 8.32 13.6 9 17 C6.3093858 13.4125144 4.63762763 10.30583919 2.8125 6.25 C2.28269531 5.07953125 1.75289062 3.9090625 1.20703125 2.703125 C0.80871094 1.81109375 0.41039062 0.9190625 0 0 Z " fill="#242A60" transform="translate(789,419)"/>
<path d="M0 0 C1.36733028 0.95298777 2.70264493 1.95374591 4 3 C5.31836295 3.69580267 6.64791086 4.37224433 8 5 C4.66766251 6.11077916 4.25304126 5.96329725 1.1875 4.6875 C0.49011719 4.40648437 -0.20726562 4.12546875 -0.92578125 3.8359375 C-1.61027344 3.56007813 -2.29476562 3.28421875 -3 3 C-4.99640639 2.32264783 -6.99504414 1.65161065 -9 1 C-5.64846558 -1.11022538 -3.75933548 -1.22178403 0 0 Z " fill="#2C3368" transform="translate(719,356)"/>
<path d="M0 0 C0.66 0.99 1.32 1.98 2 3 C1.67 3.99 1.34 4.98 1 6 C-1.01822917 5.96744792 -3.03645833 5.93489583 -5.0546875 5.90234375 C-7.08185404 5.87350758 -7.08185404 5.87350758 -9 7 C-8.67 5.68 -8.34 4.36 -8 3 C-6.865625 2.690625 -5.73125 2.38125 -4.5625 2.0625 C-1.21224901 1.37075469 -1.21224901 1.37075469 0 0 Z " fill="#1B1D2B" transform="translate(625,1111)"/>
<path d="M0 0 C3 0 3 0 6 1 C7.1875 3.5625 7.1875 3.5625 8 6 C5.69 6.66 3.38 7.32 1 8 C1.66 7.01 2.32 6.02 3 5 C1.35 4.67 -0.3 4.34 -2 4 C-2 3.34 -2 2.68 -2 2 C-1.34 2 -0.68 2 0 2 C0 1.34 0 0.68 0 0 Z " fill="#1C1D35" transform="translate(482,815)"/>
<path d="M0 0 C0.66 0.33 1.32 0.66 2 1 C1.525625 2.175625 1.05125 3.35125 0.5625 4.5625 C-0.88806847 8.40103259 -1.57577103 11.92740191 -2 16 C-2.99 16.33 -3.98 16.66 -5 17 C-4.69075786 14.89535207 -4.3774944 12.7912947 -4.0625 10.6875 C-3.88847656 9.51574219 -3.71445312 8.34398437 -3.53515625 7.13671875 C-3 4 -3 4 -2 1 C-1.34 0.67 -0.68 0.34 0 0 Z " fill="#2C304B" transform="translate(466,735)"/>
<path d="M0 0 C3.625 0.375 3.625 0.375 7 1 C7 1.99 7 2.98 7 4 C2.71 4.99 -1.58 5.98 -6 7 C-6.33 6.34 -6.66 5.68 -7 5 C-5.35 4.67 -3.7 4.34 -2 4 C-2 3.34 -2 2.68 -2 2 C-1.34 1.34 -0.68 0.68 0 0 Z " fill="#2A2F59" transform="translate(551,554)"/>
<path d="M0 0 C2 2 2 2 2 5 C2.185625 5.66 2.37125 6.32 2.5625 7 C3 9 3 9 2 12 C-1.80984844 9.22920113 -2.06840752 5.37131855 -3 1 C-2.01 0.67 -1.02 0.34 0 0 Z " fill="#BAC2F4" transform="translate(444,479)"/>
<path d="M0 0 C1.4540625 0.0309375 1.4540625 0.0309375 2.9375 0.0625 C2.9375 0.7225 2.9375 1.3825 2.9375 2.0625 C1.2875 2.3925 -0.3625 2.7225 -2.0625 3.0625 C-2.0625 4.0525 -2.0625 5.0425 -2.0625 6.0625 C-0.4125 6.3925 1.2375 6.7225 2.9375 7.0625 C2.9375 7.7225 2.9375 8.3825 2.9375 9.0625 C0.0625 9.25 0.0625 9.25 -3.0625 9.0625 C-5.0625 6.0625 -5.0625 6.0625 -4.75 3.4375 C-3.74055958 -0.0496578 -3.77085022 0.07695613 0 0 Z " fill="#7C7D8D" transform="translate(684.0625,1101.9375)"/>
<path d="M0 0 C2.31 0 4.62 0 7 0 C7 2.97 7 5.94 7 9 C6.67 9 6.34 9 6 9 C6 6.69 6 4.38 6 2 C4.68 2 3.36 2 2 2 C2 4.31 2 6.62 2 9 C1.34 9 0.68 9 0 9 C0 6.03 0 3.06 0 0 Z " fill="#7F7F8C" transform="translate(517,1102)"/>
<path d="M0 0 C0.33 0.66 0.66 1.32 1 2 C1.66 2.33 2.32 2.66 3 3 C2.67 3.99 2.34 4.98 2 6 C0.01751285 6.71706982 -1.98415349 7.38290413 -4 8 C-4.66 8.66 -5.32 9.32 -6 10 C-5.58578031 5.16743695 -3.53586014 3.17320782 0 0 Z " fill="#C8CDF4" transform="translate(501,697)"/>
<path d="M0 0 C0.66 0.66 1.32 1.32 2 2 C-1.3 3.32 -4.6 4.64 -8 6 C-8.66 5.34 -9.32 4.68 -10 4 C-9.34 3.67 -8.68 3.34 -8 3 C-8.33 2.34 -8.66 1.68 -9 1 C-5.98675805 -0.50662097 -3.31713623 -0.17770373 0 0 Z " fill="#292C51" transform="translate(556,649)"/>
<path d="M0 0 C4.95 0 9.9 0 15 0 C15 0.99 15 1.98 15 3 C13.06257659 3.02703381 11.12504521 3.04641125 9.1875 3.0625 C8.10855469 3.07410156 7.02960937 3.08570313 5.91796875 3.09765625 C3 3 3 3 0 2 C0 1.34 0 0.68 0 0 Z " fill="#7D88EF" transform="translate(693,356)"/>
<path d="M0 0 C3.53217579 0.32110689 6.63449506 0.87816502 10 2 C9.34 2 8.68 2 8 2 C8 2.66 8 3.32 8 4 C2.39 4 -3.22 4 -9 4 C-9 3.67 -9 3.34 -9 3 C-7.88625 2.87625 -6.7725 2.7525 -5.625 2.625 C-1.96896323 2.3534187 -1.96896323 2.3534187 0 0 Z " fill="#2B3163" transform="translate(541,344)"/>
<path d="M0 0 C0.33 0.66 0.66 1.32 1 2 C1.66 2.33 2.32 2.66 3 3 C3.625 5.5625 3.625 5.5625 4 8 C4.99 8.33 5.98 8.66 7 9 C6.67 10.65 6.34 12.3 6 14 C2.04319812 9.38373114 0 6.15374666 0 0 Z " fill="#D5D7F2" transform="translate(481,800)"/>
<path d="M0 0 C-4.77357872 2.71391278 -8.34388537 4.56561146 -14 4 C-14 2.68 -14 1.36 -14 0 C-8.25 0.875 -8.25 0.875 -6 2 C-6 1.34 -6 0.68 -6 0 C-2.25 -1.125 -2.25 -1.125 0 0 Z " fill="#DFE1F6" transform="translate(446,769)"/>
<path d="M0 0 C2.51774621 1.2588731 4.08414923 2.95642585 6 5 C6 5.33 6 5.66 6 6 C3.03 5.67 0.06 5.34 -3 5 C-2.67 4.01 -2.34 3.02 -2 2 C-1.34 2 -0.68 2 0 2 C0 1.34 0 0.68 0 0 Z M-9 5 C-7.02 5 -5.04 5 -3 5 C-3.66 5.66 -4.32 6.32 -5 7 C-6.32 6.34 -7.64 5.68 -9 5 Z " fill="#1C1C29" transform="translate(529,1096)"/>
<path d="M0 0 C3.36591866 1.44253657 5.51047079 3.33264727 8 6 C7.01 6.33 6.02 6.66 5 7 C4.67 7.66 4.34 8.32 4 9 C2.5 7.625 2.5 7.625 1 6 C1 5.34 1 4.68 1 4 C0.68521554 2.66216607 0.35412344 1.32796291 0 0 Z " fill="#2E3157" transform="translate(600,549)"/>
<path d="M0 0 C1.32 0.66 2.64 1.32 4 2 C4 3.98 4 5.96 4 8 C1.13275314 7.42655063 0.1385485 7.1385485 -2 5 C-2.66 5 -3.32 5 -4 5 C-4 4.34 -4 3.68 -4 3 C-3.01 3 -2.02 3 -1 3 C-0.67 2.01 -0.34 1.02 0 0 Z " fill="#151422" transform="translate(477,1104)"/>
<path d="M0 0 C2.625 0.9375 2.625 0.9375 5 2 C4.67 3.32 4.34 4.64 4 6 C1.69 5.34 -0.62 4.68 -3 4 C-2.67 3.01 -2.34 2.02 -2 1 C-1.34 0.67 -0.68 0.34 0 0 Z " fill="#11131F" transform="translate(553,1096)"/>
<path d="M0 0 C0 1.65 0 3.3 0 5 C-2.31 5.33 -4.62 5.66 -7 6 C-7.66 5.01 -8.32 4.02 -9 3 C-3.375 0 -3.375 0 0 0 Z " fill="#2B2E53" transform="translate(558,632)"/>
<path d="M0 0 C1.32 1.65 2.64 3.3 4 5 C3.67 5.66 3.34 6.32 3 7 C1.35 7 -0.3 7 -2 7 C-2.6875 5.1875 -2.6875 5.1875 -3 3 C-1.5625 1.25 -1.5625 1.25 0 0 Z " fill="#1B1C35" transform="translate(620,809)"/>
<path d="M0 0 C0.66 0 1.32 0 2 0 C2 5.66666667 2 11.33333333 2 17 C1.01 16.34 0.02 15.68 -1 15 C-0.67 10.05 -0.34 5.1 0 0 Z " fill="#1E2237" transform="translate(629,768)"/>
<path d="M0 0 C0.33 0 0.66 0 1 0 C0.67 3.96 0.34 7.92 0 12 C-1.32 11.67 -2.64 11.34 -4 11 C-3.67 8.36 -3.34 5.72 -3 3 C-2.34 3.33 -1.68 3.66 -1 4 C-0.67 2.68 -0.34 1.36 0 0 Z " fill="#1A1D39" transform="translate(476,748)"/>
<path d="M0 0 C0.99 0.33 1.98 0.66 3 1 C3.33 3.64 3.66 6.28 4 9 C2.68 9.33 1.36 9.66 0 10 C-0.95024979 6.30458414 -0.95024979 3.69541586 0 0 Z " fill="#D7D9EF" transform="translate(396,715)"/>
<path d="M0 0 C-2.22723982 2.33965571 -4.58956647 4.27099166 -7.1875 6.1875 C-7.90292969 6.71730469 -8.61835937 7.24710938 -9.35546875 7.79296875 C-9.89816406 8.19128906 -10.44085937 8.58960938 -11 9 C-11.66 8.67 -12.32 8.34 -13 8 C-12.0919838 6.86800647 -11.17316174 5.74467637 -10.25 4.625 C-9.73953125 3.99851562 -9.2290625 3.37203125 -8.703125 2.7265625 C-5.72745264 -0.29005948 -4.11644576 -1.37214859 0 0 Z " fill="#1C203F" transform="translate(695,645)"/>
<path d="M0 0 C0 4.01847141 -1.22856766 5.15563523 -4 8 C-7.25 9.3125 -7.25 9.3125 -10 10 C-8.5741914 6.54804233 -6.90253666 4.8985744 -3.875 2.75 C-3.15054688 2.22921875 -2.42609375 1.7084375 -1.6796875 1.171875 C-1.12539063 0.78515625 -0.57109375 0.3984375 0 0 Z " fill="#202654" transform="translate(757,596)"/>
<path d="M0 0 C0 0.99 0 1.98 0 3 C0.99 3.33 1.98 3.66 3 4 C-7.44520548 5.36986301 -7.44520548 5.36986301 -11 3 C-9.54293274 2.49632243 -8.08429904 1.99717444 -6.625 1.5 C-5.81289063 1.2215625 -5.00078125 0.943125 -4.1640625 0.65625 C-2 0 -2 0 0 0 Z " fill="#A7AEE3" transform="translate(540,563)"/>
<path d="M0 0 C0.78375 0.04125 1.5675 0.0825 2.375 0.125 C2.045 0.785 1.715 1.445 1.375 2.125 C0.385 2.455 -0.605 2.785 -1.625 3.125 C-1.625 4.115 -1.625 5.105 -1.625 6.125 C-0.635 6.455 0.355 6.785 1.375 7.125 C1.375 7.785 1.375 8.445 1.375 9.125 C-0.275 8.795 -1.925 8.465 -3.625 8.125 C-4.25 5.25 -4.25 5.25 -4.625 2.125 C-2.625 0.125 -2.625 0.125 0 0 Z " fill="#7C7E8A" transform="translate(568.625,1101.875)"/>
<path d="M0 0 C1.32 0.66 2.64 1.32 4 2 C3.67 3.32 3.34 4.64 3 6 C1.35 5.67 -0.3 5.34 -2 5 C-1.125 1.125 -1.125 1.125 0 0 Z " fill="#1D1F2B" transform="translate(568,1103)"/>
<path d="M0 0 C0 1.65 0 3.3 0 5 C-2.97 4.505 -2.97 4.505 -6 4 C-6 2.68 -6 1.36 -6 0 C-3 -1 -3 -1 0 0 Z " fill="#D1D2F2" transform="translate(527,842)"/>
<path d="M0 0 C1.32 0.66 2.64 1.32 4 2 C1.36 3.98 -1.28 5.96 -4 8 C-4.66 7.34 -5.32 6.68 -6 6 C-5.01 5.67 -4.02 5.34 -3 5 C-1.8499169 3.03327085 -1.8499169 3.03327085 -1 1 C-0.67 0.67 -0.34 0.34 0 0 Z " fill="#99A0E4" transform="translate(693,636)"/>
<path d="M0 0 C0.66 0.99 1.32 1.98 2 3 C0.90081184 3.98475214 -0.2045602 4.96260473 -1.3125 5.9375 C-1.92738281 6.48277344 -2.54226563 7.02804687 -3.17578125 7.58984375 C-5 9 -5 9 -8 10 C-6.34908222 5.70761377 -3.26245434 3.1206085 0 0 Z " fill="#BCC0E6" transform="translate(453,617)"/>
<path d="M0 0 C2.4375 0.8125 2.4375 0.8125 5 2 C5.33 2.99 5.66 3.98 6 5 C4.03533587 6.06775224 2.03144641 7.06553465 0 8 C-0.66 7.67 -1.32 7.34 -2 7 C-1.67 6.401875 -1.34 5.80375 -1 5.1875 C0.20787988 2.94613529 0.20787988 2.94613529 0 0 Z " fill="#ABB0EC" transform="translate(584,616)"/>
<path d="M0 0 C2.72407899 3.09064371 3.39214403 5.02026905 3.3125 9.125 C3.30863281 9.99382813 3.30476562 10.86265625 3.30078125 11.7578125 C3 14 3 14 1 16 C-0.50156874 12.99686252 -0.09281204 10.20932478 -0.0625 6.875 C-0.05347656 5.59367188 -0.04445313 4.31234375 -0.03515625 2.9921875 C-0.02355469 2.00476563 -0.01195312 1.01734375 0 0 Z " fill="#8F97D4" transform="translate(626,586)"/>
<path d="M0 0 C0.66 0 1.32 0 2 0 C3.20272819 2.40545638 3.10071472 3.94996953 3.0625 6.625 C3.05347656 7.44226563 3.04445313 8.25953125 3.03515625 9.1015625 C3.02355469 9.72804688 3.01195312 10.35453125 3 11 C2.34 11 1.68 11 1 11 C1 10.01 1 9.02 1 8 C0.34 8 -0.32 8 -1 8 C-0.67 5.36 -0.34 2.72 0 0 Z " fill="#7683F0" transform="translate(803,464)"/>
<path d="M0 0 C2.0625 0.4375 2.0625 0.4375 4 1 C3.67 2.65 3.34 4.3 3 6 C1.68 6 0.36 6 -1 6 C-1.042721 4.33388095 -1.04063832 2.66617115 -1 1 C-0.67 0.67 -0.34 0.34 0 0 Z " fill="#1C1E2B" transform="translate(694,1103)"/>
<path d="M0 0 C2.204364 0.22950319 4.41392173 0.41075933 6.625 0.5625 C7.81351563 0.64628906 9.00203125 0.73007812 10.2265625 0.81640625 C11.59941406 0.90728516 11.59941406 0.90728516 13 1 C13 1.33 13 1.66 13 2 C6.4 2 -0.2 2 -7 2 C-6 0 -6 0 -4.0625 -0.6875 C-2 -1 -2 -1 0 0 Z " fill="#D6D9FA" transform="translate(549,849)"/>
<path d="M0 0 C3.16115776 1.36983503 3.9927092 1.9890638 6 5 C5.01 5.33 4.02 5.66 3 6 C3 5.34 3 4.68 3 4 C1.02 4.99 1.02 4.99 -1 6 C-1.66 4.35 -2.32 2.7 -3 1 C-2.01 1.495 -2.01 1.495 -1 2 C-0.67 1.34 -0.34 0.68 0 0 Z " fill="#181A30" transform="translate(399,762)"/>
<path d="M0 0 C1.32 0.33 2.64 0.66 4 1 C3.67 2.65 3.34 4.3 3 6 C2.34 6 1.68 6 1 6 C1.33 6.66 1.66 7.32 2 8 C1.01 8 0.02 8 -1 8 C-1.93065133 5.39417629 -2.14917407 4.35801776 -1.0625 1.75 C-0.711875 1.1725 -0.36125 0.595 0 0 Z " fill="#22243A" transform="translate(396,759)"/>
<path d="M0 0 C0.99 0.33 1.98 0.66 3 1 C2.67 2.65 2.34 4.3 2 6 C0.35 6.33 -1.3 6.66 -3 7 C-2.25 2.25 -2.25 2.25 0 0 Z " fill="#D4D6F7" transform="translate(428,648)"/>
<path d="M0 0 C0.66 0.99 1.32 1.98 2 3 C0.35 5.31 -1.3 7.62 -3 10 C-3.99 9.01 -4.98 8.02 -6 7 C-5 5 -5 5 -2 4 C-0.79117904 1.99983534 -0.79117904 1.99983534 0 0 Z " fill="#2C2F50" transform="translate(428,643)"/>
<path d="M0 0 C0.66 0.66 1.32 1.32 2 2 C-0.97 2.66 -3.94 3.32 -7 4 C-7.33 3.01 -7.66 2.02 -8 1 C-3.375 -1.125 -3.375 -1.125 0 0 Z " fill="#35355E" transform="translate(568,645)"/>
<path d="M0 0 C-2.62198774 2.15377564 -4.64404172 3.40072174 -8 4 C-7.67 2.68 -7.34 1.36 -7 0 C-7.66 -0.33 -8.32 -0.66 -9 -1 C-5.79937313 -2.60031344 -3.27728194 -1.03173691 0 0 Z " fill="#B3B7EA" transform="translate(551,634)"/>
<path d="M0 0 C0 1.32 0 2.64 0 4 C-3.96 4 -7.92 4 -12 4 C-8.36043372 1.57362248 -4.44144233 0 0 0 Z " fill="#292D56" transform="translate(570,628)"/>
<path d="M0 0 C0.33 0.99 0.66 1.98 1 3 C-0.74440798 3.55941359 -2.49585257 4.09691897 -4.25 4.625 C-5.22453125 4.92664063 -6.1990625 5.22828125 -7.203125 5.5390625 C-10.31678461 6.05220752 -11.41569255 5.71056541 -14 4 C-13.07316406 3.79503906 -12.14632812 3.59007812 -11.19140625 3.37890625 C-9.99386719 3.10949219 -8.79632812 2.84007812 -7.5625 2.5625 C-6.36753906 2.29566406 -5.17257812 2.02882813 -3.94140625 1.75390625 C-1.1295314 1.29933252 -1.1295314 1.29933252 0 0 Z " fill="#AEB4E6" transform="translate(580,622)"/>
<path d="M0 0 C0.66 0 1.32 0 2 0 C3 3 3 3 2.22265625 5.04296875 C1.83980469 5.75066406 1.45695313 6.45835937 1.0625 7.1875 C0.68222656 7.90292969 0.30195312 8.61835937 -0.08984375 9.35546875 C-0.54037109 10.16951172 -0.54037109 10.16951172 -1 11 C-1.33 11 -1.66 11 -2 11 C-2.25 3.375 -2.25 3.375 0 0 Z " fill="#252853" transform="translate(620,608)"/>
<path d="M0 0 C0.99 0 1.98 0 3 0 C2.67 1.32 2.34 2.64 2 4 C2.66 3.67 3.32 3.34 4 3 C2.60667426 6.36720387 1.0210714 7.9859524 -2 10 C-1.85950482 8.52031676 -1.71245174 7.04125484 -1.5625 5.5625 C-1.48128906 4.73878906 -1.40007813 3.91507813 -1.31640625 3.06640625 C-1 1 -1 1 0 0 Z " fill="#8C95F0" transform="translate(769,576)"/>
<path d="M0 0 C0.99 0.33 1.98 0.66 3 1 C2.01 2.485 2.01 2.485 1 4 C0.34 4 -0.32 4 -1 4 C-1.226875 4.61875 -1.45375 5.2375 -1.6875 5.875 C-3.37929835 8.61410209 -4.99244161 9.05024472 -8 10 C-6.71700242 7.13792848 -5.469364 4.9754912 -3 3 C-2.01 3 -1.02 3 0 3 C0 2.01 0 1.02 0 0 Z " fill="#828BDC" transform="translate(777,572)"/>
<path d="M0 0 C-0.33 1.65 -0.66 3.3 -1 5 C-4.3 5 -7.6 5 -11 5 C-4.33333333 0 -4.33333333 0 0 0 Z " fill="#AAB0E3" transform="translate(529,567)"/>
<path d="M0 0 C2 3 2 3 1.625 5.6875 C1.41875 6.450625 1.2125 7.21375 1 8 C0.01 7.67 -0.98 7.34 -2 7 C-1.67 6.67 -1.34 6.34 -1 6 C-2.65 5.67 -4.3 5.34 -6 5 C-6 4.34 -6 3.68 -6 3 C-4.02 3 -2.04 3 0 3 C0 2.01 0 1.02 0 0 Z " fill="#1F202C" transform="translate(547,1104)"/>
<path d="M0 0 C1.98 0.495 1.98 0.495 4 1 C3.67 2.65 3.34 4.3 3 6 C1.68 5.67 0.36 5.34 -1 5 C-0.67 3.35 -0.34 1.7 0 0 Z " fill="#1C1E2A" transform="translate(554,1103)"/>
<path d="M0 0 C0.75 1.6875 0.75 1.6875 1 4 C-0.94547207 7.2175115 -2.10182081 8.73462887 -5.75 9.8125 C-6.4925 9.874375 -7.235 9.93625 -8 10 C-7.59007812 9.52949219 -7.18015625 9.05898438 -6.7578125 8.57421875 C-6.21898437 7.95160156 -5.68015625 7.32898438 -5.125 6.6875 C-4.59132813 6.07261719 -4.05765625 5.45773437 -3.5078125 4.82421875 C-1.8359553 2.86501788 -1.8359553 2.86501788 0 0 Z " fill="#B1B4DD" transform="translate(513,680)"/>
<path d="M0 0 C1.32 0.66 2.64 1.32 4 2 C3.505 2.433125 3.01 2.86625 2.5 3.3125 C0.66781808 4.99740483 0.66781808 4.99740483 1 8 C-1.31 8 -3.62 8 -6 8 C-4.06745228 5.9754262 -2.36841312 4.57894208 0 3 C0 2.01 0 1.02 0 0 Z " fill="#1E1F3C" transform="translate(732,615)"/>
<path d="M0 0 C-1.39332574 3.36720387 -2.9789286 4.9859524 -6 7 C-6.66 5.68 -7.32 4.36 -8 3 C-2.25 0 -2.25 0 0 0 Z " fill="#8A93E6" transform="translate(761,591)"/>
<path d="M0 0 C3.65316671 1.24976756 4.78065836 1.67098753 7 5 C5.35 5.66 3.7 6.32 2 7 C1.87625 6.195625 1.7525 5.39125 1.625 4.5625 C1.315625 3.2940625 1.315625 3.2940625 1 2 C0.34 1.67 -0.32 1.34 -1 1 C-0.67 0.67 -0.34 0.34 0 0 Z " fill="#A1AAE6" transform="translate(586,560)"/>
<path d="M0 0 C0.33 0 0.66 0 1 0 C1 5.28 1 10.56 1 16 C0.01 16.33 -0.98 16.66 -2 17 C-1.34 11.39 -0.68 5.78 0 0 Z " fill="#28316A" transform="translate(806,504)"/>
<path d="M0 0 C2.50037734 2.17424117 3.43628586 3.73045798 4 7 C3.01 7.495 3.01 7.495 2 8 C1.67 7.01 1.34 6.02 1 5 C-0.98 5.99 -0.98 5.99 -3 7 C-1.125 1.125 -1.125 1.125 0 0 Z " fill="#3B3E6B" transform="translate(443,488)"/>
<path d="M0 0 C1.32 0 2.64 0 4 0 C4.33 1.65 4.66 3.3 5 5 C3.35 5.33 1.7 5.66 0 6 C-0.33 5.01 -0.66 4.02 -1 3 C-0.34 3 0.32 3 1 3 C0.67 2.01 0.34 1.02 0 0 Z " fill="#12111F" transform="translate(491,1114)"/>
<path d="M0 0 C0.33 2.64 0.66 5.28 1 8 C0.34 8 -0.32 8 -1 8 C-1.33 8.66 -1.66 9.32 -2 10 C-3 9 -3 9 -3.09765625 7.15234375 C-3.06510417 5.1015625 -3.03255208 3.05078125 -3 1 C-1 0 -1 0 0 0 Z " fill="#0D0F1C" transform="translate(597,1103)"/>
<path d="M0 0 C0.99 0.33 1.98 0.66 3 1 C3 2.65 3 4.3 3 6 C1.35 5.67 -0.3 5.34 -2 5 C-1.125 1.125 -1.125 1.125 0 0 Z " fill="#161622" transform="translate(507,1103)"/>
<path d="M0 0 C-2.82553984 4.23830976 -5.12180888 3.97715348 -10 5 C-10.33 4.01 -10.66 3.02 -11 2 C-9.54494642 1.47007308 -8.08581873 0.9513211 -6.625 0.4375 C-5.81289063 0.14746094 -5.00078125 -0.14257812 -4.1640625 -0.44140625 C-2 -1 -2 -1 0 0 Z " fill="#32335D" transform="translate(586,624)"/>
<path d="M0 0 C-3.00617269 3.00617269 -5.82381598 2.59585316 -10 3 C-10 2.34 -10 1.68 -10 1 C-11.65 1 -13.3 1 -15 1 C-15 0.67 -15 0.34 -15 0 C-13.25093341 -0.19601608 -11.50068154 -0.38147403 -9.75 -0.5625 C-8.77546875 -0.66691406 -7.8009375 -0.77132812 -6.796875 -0.87890625 C-4.2368648 -0.98974468 -2.41851841 -0.77738092 0 0 Z " fill="#313865" transform="translate(554,546)"/>
<path d="M0 0 C2.4375 0.6875 2.4375 0.6875 5 2 C5.8125 4.625 5.8125 4.625 6 7 C5.01 7 4.02 7 3 7 C0.8125 4 0.8125 4 -1 1 C-0.67 0.67 -0.34 0.34 0 0 Z " fill="#282D5C" transform="translate(777,400)"/>
<path d="M0 0 C0.66 0.33 1.32 0.66 2 1 C2.33 1.99 2.66 2.98 3 4 C1.0625 6.6875 1.0625 6.6875 -1 9 C-1.66 8.67 -2.32 8.34 -3 8 C-1.125 1.125 -1.125 1.125 0 0 Z " fill="#AFB6F7" transform="translate(469,373)"/>
<path d="M0 0 C0.66 0.33 1.32 0.66 2 1 C2.33 1.99 2.66 2.98 3 4 C-0.75 7 -0.75 7 -3 7 C-3 5.02 -3 3.04 -3 1 C-2.01 0.67 -1.02 0.34 0 0 Z " fill="#111321" transform="translate(673,1104)"/>
<path d="M0 0 C0.66 0 1.32 0 2 0 C2 2.31 2 4.62 2 7 C1.01 7.33 0.02 7.66 -1 8 C-1.93065133 5.39417629 -2.14917407 4.35801776 -1.0625 1.75 C-0.711875 1.1725 -0.36125 0.595 0 0 Z " fill="#141624" transform="translate(702,1104)"/>
<path d="M0 0 C2.97 0.495 2.97 0.495 6 1 C4.68 1.33 3.36 1.66 2 2 C2 4.31 2 6.62 2 9 C1.34 9 0.68 9 0 9 C0 6.03 0 3.06 0 0 Z " fill="#7A7B8B" transform="translate(704,1102)"/>
<path d="M0 0 C5.28 0.33 10.56 0.66 16 1 C16 1.33 16 1.66 16 2 C15.31292969 2.06058594 14.62585938 2.12117187 13.91796875 2.18359375 C12.56638672 2.30927734 12.56638672 2.30927734 11.1875 2.4375 C10.29417969 2.51871094 9.40085937 2.59992187 8.48046875 2.68359375 C5.87256441 2.93489767 5.87256441 2.93489767 3 4 C2.01 2.68 1.02 1.36 0 0 Z " fill="#12132E" transform="translate(540,852)"/>
<path d="M0 0 C2.475 0.99 2.475 0.99 5 2 C4.34 3.32 3.68 4.64 3 6 C1.68 6 0.36 6 -1 6 C-0.67 4.02 -0.34 2.04 0 0 Z " fill="#181B31" transform="translate(513,842)"/>
<path d="M0 0 C-0.49831724 3.68754757 -1.10067643 5.60490662 -4 8 C-4 6.68 -4 5.36 -4 4 C-4.66 4.99 -5.32 5.98 -6 7 C-5.6875 4.625 -5.6875 4.625 -5 2 C-2 0 -2 0 0 0 Z " fill="#1C213D" transform="translate(489,713)"/>
<path d="M0 0 C1.0625 1.875 1.0625 1.875 2 4 C1.67 4.66 1.34 5.32 1 6 C0.401875 5.835 -0.19625 5.67 -0.8125 5.5 C-3.11344336 4.8885876 -3.11344336 4.8885876 -6 5 C-4.02 3.35 -2.04 1.7 0 0 Z " fill="#2A2E4E" transform="translate(509,662)"/>
<path d="M0 0 C0.33 1.32 0.66 2.64 1 4 C-0.6875 6.3125 -0.6875 6.3125 -3 8 C-4.32 7.67 -5.64 7.34 -7 7 C-4.69 4.69 -2.38 2.38 0 0 Z " fill="#2D3467" transform="translate(775,578)"/>
<path d="M0 0 C2.625 0.9375 2.625 0.9375 5 2 C4.67 3.98 4.34 5.96 4 8 C-0.875 3.25 -0.875 3.25 -2 1 C-1.34 0.67 -0.68 0.34 0 0 Z " fill="#2E335C" transform="translate(595,563)"/>
<path d="M0 0 C1.98 0 3.96 0 6 0 C5.3125 2.4375 5.3125 2.4375 4 5 C1.375 5.8125 1.375 5.8125 -1 6 C-0.67 4.02 -0.34 2.04 0 0 Z " fill="#121422" transform="translate(604,1114)"/>
<path d="M0 0 C2.475 0.495 2.475 0.495 5 1 C4.67 2.32 4.34 3.64 4 5 C2.68 5 1.36 5 0 5 C0 3.35 0 1.7 0 0 Z " fill="#181824" transform="translate(587,1104)"/>
<path d="M0 0 C0.99 0 1.98 0 3 0 C3 2.31 3 4.62 3 7 C2.01 7.33 1.02 7.66 0 8 C0 5.36 0 2.72 0 0 Z " fill="#141626" transform="translate(707,1104)"/>
<path d="M0 0 C1.32 0.66 2.64 1.32 4 2 C2.68 4.31 1.36 6.62 0 9 C-0.33 9 -0.66 9 -1 9 C-1.125 2.25 -1.125 2.25 0 0 Z " fill="#E5E7FA" transform="translate(394,734)"/>
<path d="M0 0 C-1.65 1.98 -3.3 3.96 -5 6 C-5.66 5.67 -6.32 5.34 -7 5 C-7 3.68 -7 2.36 -7 1 C-4.53721199 -0.231394 -2.7204945 -0.07159196 0 0 Z " fill="#99A1E2" transform="translate(688,644)"/>
<path d="M0 0 C0.33 1.32 0.66 2.64 1 4 C-2.465 5.485 -2.465 5.485 -6 7 C-6.33 6.34 -6.66 5.68 -7 5 C-4.69 3.35 -2.38 1.7 0 0 Z " fill="#262955" transform="translate(700,635)"/>
<path d="M0 0 C2.475 0.99 2.475 0.99 5 2 C0.375 6 0.375 6 -3 6 C-2.67 5.01 -2.34 4.02 -2 3 C-1.34 3 -0.68 3 0 3 C0 2.01 0 1.02 0 0 Z " fill="#949CE2" transform="translate(707,625)"/>
<path d="M0 0 C4.27786748 0.49360009 7.09567131 1.04783565 11 3 C7.7 3.33 4.4 3.66 1 4 C0.67 2.68 0.34 1.36 0 0 Z " fill="#2C325B" transform="translate(495,540)"/>
<path d="M0 0 C-0.33 0.66 -0.66 1.32 -1 2 C-1.66 2 -2.32 2 -3 2 C-3 2.66 -3 3.32 -3 4 C-5.475 3.01 -5.475 3.01 -8 2 C-6.14210462 -1.71579076 -3.44525918 -1.06921837 0 0 Z " fill="#B2B8ED" transform="translate(507,538)"/>
<path d="M0 0 C2 2 2 2 2.125 5.125 C2.08375 6.07375 2.0425 7.0225 2 8 C1.34 8 0.68 8 0 8 C-0.33 7.34 -0.66 6.68 -1 6 C-3.52733235 5.34444881 -3.52733235 5.34444881 -6 5 C-5.38125 4.9175 -4.7625 4.835 -4.125 4.75 C-1.81562433 4.18741541 -1.81562433 4.18741541 -0.75 1.9375 C-0.5025 1.298125 -0.255 0.65875 0 0 Z " fill="#11111D" transform="translate(536,1096)"/>
<path d="M0 0 C1.65 0 3.3 0 5 0 C4.34 1.32 3.68 2.64 3 4 C3.66 4 4.32 4 5 4 C5 4.66 5 5.32 5 6 C3.35 5.67 1.7 5.34 0 5 C0 3.35 0 1.7 0 0 Z " fill="#171B31" transform="translate(610,823)"/>
<path d="M0 0 C0.33 0.99 0.66 1.98 1 3 C-0.28965176 4.37562854 -1.62689293 5.70766393 -3 7 C-3.66 7 -4.32 7 -5 7 C-4.49396008 4.83125748 -4.00016187 3.00032373 -3 1 C-2.01 0.67 -1.02 0.34 0 0 Z " fill="#D9DAF4" transform="translate(453,760)"/>
<path d="M0 0 C0.66 0.33 1.32 0.66 2 1 C1.25 3.4375 1.25 3.4375 0 6 C-2.125 6.8125 -2.125 6.8125 -4 7 C-4 5.02 -4 3.04 -4 1 C-3.34 1.66 -2.68 2.32 -2 3 C-1.34 2.01 -0.68 1.02 0 0 Z " fill="#E5E7FC" transform="translate(398,743)"/>
<path d="M0 0 C0.66 0.33 1.32 0.66 2 1 C0.02 3.97 -1.96 6.94 -4 10 C-4.66 9.67 -5.32 9.34 -6 9 C-5.67 8.01 -5.34 7.02 -5 6 C-4.34 6 -3.68 6 -3 6 C-2.87625 5.195625 -2.7525 4.39125 -2.625 3.5625 C-2.41875 2.716875 -2.2125 1.87125 -2 1 C-1.34 0.67 -0.68 0.34 0 0 Z " fill="#9FA3DE" transform="translate(658,674)"/>
<path d="M0 0 C0.66 0.33 1.32 0.66 2 1 C2 1.66 2 2.32 2 3 C1.01 3.33 0.02 3.66 -1 4 C-1.99 5.485 -1.99 5.485 -3 7 C-4.32 6.67 -5.64 6.34 -7 6 C-4.69 4.02 -2.38 2.04 0 0 Z " fill="#242A59" transform="translate(765,589)"/>
<path d="M0 0 C0.66 0.33 1.32 0.66 2 1 C1.67 1.99 1.34 2.98 1 4 C-1.5625 5.1875 -1.5625 5.1875 -4 6 C-4.66 5.01 -5.32 4.02 -6 3 C-4.03533587 1.93224776 -2.03144641 0.93446535 0 0 Z " fill="#2D2F57" transform="translate(502,576)"/>
<path d="M0 0 C0.99 0 1.98 0 3 0 C3 2.64 3 5.28 3 8 C2.01 7.67 1.02 7.34 0 7 C0 4.69 0 2.38 0 0 Z " fill="#0F0F1B" transform="translate(519,1104)"/>
<path d="M0 0 C0.33 0 0.66 0 1 0 C1.66 2.97 2.32 5.94 3 9 C1.35 8.67 -0.3 8.34 -2 8 C-1.47731534 5.23723823 -0.89130413 2.6739124 0 0 Z " fill="#0F111E" transform="translate(563,1103)"/>
<path d="M0 0 C1.65 0 3.3 0 5 0 C5.33 1.65 5.66 3.3 6 5 C5.01 4.67 4.02 4.34 3 4 C3 3.34 3 2.68 3 2 C2.34 2 1.68 2 1 2 C0.67 2.66 0.34 3.32 0 4 C-0.66 4 -1.32 4 -2 4 C-1.34 2.68 -0.68 1.36 0 0 Z " fill="#82838E" transform="translate(541,1102)"/>
<path d="M0 0 C0.66 0 1.32 0 2 0 C2.14285714 7.42857143 2.14285714 7.42857143 1 11 C0.34 10.67 -0.32 10.34 -1 10 C-0.67 6.7 -0.34 3.4 0 0 Z " fill="#727480" transform="translate(558,1098)"/>
<path d="M0 0 C0.93423645 3.01031744 1.04449911 3.86650268 0 7 C-0.99 7.33 -1.98 7.66 -3 8 C-3.75 6.25 -3.75 6.25 -4 4 C-2.0625 1.75 -2.0625 1.75 0 0 Z " fill="#191A36" transform="translate(629,787)"/>
<path d="M0 0 C1.32 0 2.64 0 4 0 C2.60667426 3.36720387 1.0210714 4.9859524 -2 7 C-1.125 2.25 -1.125 2.25 0 0 Z " fill="#2D2F53" transform="translate(516,673)"/>
<path d="M0 0 C0.66 1.32 1.32 2.64 2 4 C1.01 5.485 1.01 5.485 0 7 C-0.99 6.67 -1.98 6.34 -3 6 C-2.625 3.5625 -2.625 3.5625 -2 1 C-1.34 0.67 -0.68 0.34 0 0 Z " fill="#2A2C50" transform="translate(526,648)"/>
<path d="M0 0 C0.66 0 1.32 0 2 0 C2.33 1.32 2.66 2.64 3 4 C1.02 4.99 -0.96 5.98 -3 7 C-1.125 1.125 -1.125 1.125 0 0 Z " fill="#D0D5F8" transform="translate(436,637)"/>
<path d="M0 0 C0.66 0.66 1.32 1.32 2 2 C1.236875 2.28875 0.47375 2.5775 -0.3125 2.875 C-3.15029308 3.96269013 -3.15029308 3.96269013 -6 6 C-6.66 5.34 -7.32 4.68 -8 4 C-5.42910583 1.88819408 -3.36939433 0.33693943 0 0 Z " fill="#2B305C" transform="translate(740,610)"/>
<path d="M0 0 C-0.33 2.64 -0.66 5.28 -1 8 C-1.66 8 -2.32 8 -3 8 C-3.33 6.02 -3.66 4.04 -4 2 C-1 0 -1 0 0 0 Z " fill="#232238" transform="translate(784,575)"/>
<path d="M0 0 C0.99 0.33 1.98 0.66 3 1 C3 1.99 3 2.98 3 4 C4.43750191 5.68798827 4.43750191 5.68798827 6 7 C5.01 7.33 4.02 7.66 3 8 C2.01 7.34 1.02 6.68 0 6 C-0.1875 2.875 -0.1875 2.875 0 0 Z " fill="#B6BCF2" transform="translate(488,529)"/>
<path d="M0 0 C0.33 0 0.66 0 1 0 C2 6.625 2 6.625 2 10 C1.01 9.67 0.02 9.34 -1 9 C-1.33 6.69 -1.66 4.38 -2 2 C-1.34 2 -0.68 2 0 2 C0 1.34 0 0.68 0 0 Z " fill="#7581F4" transform="translate(794,432)"/>
<path d="M0 0 C2.64 0.33 5.28 0.66 8 1 C8 1.66 8 2.32 8 3 C4.62182575 3.84454356 2.32534757 4.10844919 -1 3 C-0.67 2.01 -0.34 1.02 0 0 Z " fill="#292E4E" transform="translate(683,345)"/>
<path d="M0 0 C1.32 0.66 2.64 1.32 4 2 C3.67 2.99 3.34 3.98 3 5 C1.68 5 0.36 5 -1 5 C-0.67 3.35 -0.34 1.7 0 0 Z " fill="#181A27" transform="translate(620,1103)"/>
<path d="M0 0 C1.98 0 3.96 0 6 0 C6.33 0.66 6.66 1.32 7 2 C6.67 2.66 6.34 3.32 6 4 C4.35 3.67 2.7 3.34 1 3 C0.67 2.01 0.34 1.02 0 0 Z " fill="#CDD0ED" transform="translate(514,840)"/>
<path d="M0 0 C0.66 0.33 1.32 0.66 2 1 C-0.97 3.475 -0.97 3.475 -4 6 C-4.99 5.34 -5.98 4.68 -7 4 C-1.7265625 0.77734375 -1.7265625 0.77734375 0 0 Z " fill="#BBC0E7" transform="translate(599,832)"/>
<path d="M0 0 C0.33 0.99 0.66 1.98 1 3 C1.268125 3.639375 1.53625 4.27875 1.8125 4.9375 C1.874375 5.618125 1.93625 6.29875 2 7 C0.0625 9.25 0.0625 9.25 -2 11 C-1.814375 10.236875 -1.62875 9.47375 -1.4375 8.6875 C-0.77180827 5.91032625 -0.77180827 5.91032625 -2 3 C-1.34 2.01 -0.68 1.02 0 0 Z " fill="#1B203F" transform="translate(499,689)"/>
<path d="M0 0 C0.99 0.33 1.98 0.66 3 1 C2.34 1.66 1.68 2.32 1 3 C2.32 3.33 3.64 3.66 5 4 C4.01 5.485 4.01 5.485 3 7 C1.68 6.34 0.36 5.68 -1 5 C-0.67 3.35 -0.34 1.7 0 0 Z " fill="#C1C7F7" transform="translate(531,665)"/>
<path d="M0 0 C0.66 0.99 1.32 1.98 2 3 C1.01 3.99 0.02 4.98 -1 6 C-2.32 5.34 -3.64 4.68 -5 4 C-3.35 2.68 -1.7 1.36 0 0 Z " fill="#1B203F" transform="translate(506,666)"/>
<path d="M0 0 C0.66 0.66 1.32 1.32 2 2 C-0.31 4.31 -2.62 6.62 -5 9 C-5 4.61031544 -2.87194899 3.23094261 0 0 Z " fill="#22274F" transform="translate(687,645)"/>
<path d="M0 0 C3.875 1.75 3.875 1.75 5 4 C4.34 4.66 3.68 5.32 3 6 C2.01 6 1.02 6 0 6 C0 4.02 0 2.04 0 0 Z " fill="#343762" transform="translate(465,519)"/>
<path d="M0 0 C0.33 0.66 0.66 1.32 1 2 C1.66 2 2.32 2 3 2 C3 2.66 3 3.32 3 4 C2.34 4 1.68 4 1 4 C0.67 4.66 0.34 5.32 0 6 C-1.65 4.35 -3.3 2.7 -5 1 C-3.35 0.67 -1.7 0.34 0 0 Z " fill="#313771" transform="translate(757,377)"/>
<path d="M0 0 C2.475 0.99 2.475 0.99 5 2 C4.67 2.99 4.34 3.98 4 5 C2.68 5 1.36 5 0 5 C-0.99 5.495 -0.99 5.495 -2 6 C-1.49396008 3.83125748 -1.00016187 2.00032373 0 0 Z " fill="#16192F" transform="translate(498,834)"/>
<path d="M0 0 C0.66 0.99 1.32 1.98 2 3 C0.6875 4.5 0.6875 4.5 -1 6 C-1.99 6 -2.98 6 -4 6 C-2.84826645 3.53199953 -1.95216435 1.95216435 0 0 Z " fill="#1F2240" transform="translate(603,830)"/>
<path d="M0 0 C2.00720923 0.28674418 4.0085944 0.61866701 6 1 C4.625 2.5 4.625 2.5 3 4 C2.34 4 1.68 4 1 4 C0.67 4.66 0.34 5.32 0 6 C-0.38218767 4.34385343 -0.71395102 2.67542976 -1 1 C-0.67 0.67 -0.34 0.34 0 0 Z " fill="#D6DBF7" transform="translate(498,824)"/>
<path d="M0 0 C5.41538462 -0.36923077 5.41538462 -0.36923077 8.375 1.5 C8.91125 1.995 9.4475 2.49 10 3 C7.03 3 4.06 3 1 3 C0.67 2.01 0.34 1.02 0 0 Z " fill="#1D1F36" transform="translate(408,771)"/>
<path d="M0 0 C-1.28965176 1.37562854 -2.62689293 2.70766393 -4 4 C-4.66 4 -5.32 4 -6 4 C-6 2.68 -6 1.36 -6 0 C-3.50907189 -1.24546405 -2.58919267 -0.7767578 0 0 Z " fill="#B2B8E7" transform="translate(532,644)"/>
<path d="M0 0 C1 2 1 2 0.25 4.5 C-1 7 -1 7 -4 9 C-3.67 7.02 -3.34 5.04 -3 3 C-2.34 3 -1.68 3 -1 3 C-0.67 2.01 -0.34 1.02 0 0 Z " fill="#2C3154" transform="translate(445,621)"/>
<path d="M0 0 C0.99 0 1.98 0 3 0 C3.33 1.32 3.66 2.64 4 4 C3.01 4 2.02 4 1 4 C0.67 4.66 0.34 5.32 0 6 C-1.125 2.25 -1.125 2.25 0 0 Z " fill="#1D254F" transform="translate(788,559)"/>
<path d="M0 0 C1.231394 3.69418201 0.64432764 6.2056261 0 10 C-1.5625 8.25 -1.5625 8.25 -3 6 C-2.73495121 2.99611368 -2.16695725 2.16695725 0 0 Z " fill="#7E89F7" transform="translate(795,533)"/>
<path d="M0 0 C0.99 0 1.98 0 3 0 C3 1.32 3 2.64 3 4 C3.66 4 4.32 4 5 4 C5 4.66 5 5.32 5 6 C2.525 5.01 2.525 5.01 0 4 C0 2.68 0 1.36 0 0 Z " fill="#ADB4E5" transform="translate(477,525)"/>
<path d="M0 0 C2.64 1.98 5.28 3.96 8 6 C6.68 6.33 5.36 6.66 4 7 C1 5 1 5 0.3125 2.375 C0.209375 1.59125 0.10625 0.8075 0 0 Z " fill="#727FD6" transform="translate(758,383)"/>
<path d="M0 0 C1.32 0 2.64 0 4 0 C4.33 1.32 4.66 2.64 5 4 C3.35 4.33 1.7 4.66 0 5 C0 3.35 0 1.7 0 0 Z " fill="#7581F4" transform="translate(736,371)"/>
<path d="M0 0 C2.31 0.33 4.62 0.66 7 1 C7.33 1.99 7.66 2.98 8 4 C5.23723823 3.47731534 2.6739124 2.89130413 0 2 C0 1.34 0 0.68 0 0 Z " fill="#272C57" transform="translate(706,352)"/>
<path d="M0 0 C1.98 0 3.96 0 6 0 C6 0.66 6 1.32 6 2 C4.68 1.67 3.36 1.34 2 1 C2.66 2.32 3.32 3.64 4 5 C2.68 4.67 1.36 4.34 0 4 C0 2.68 0 1.36 0 0 Z " fill="#82828D" transform="translate(529,1102)"/>
<path d="M0 0 C0.99 0.66 1.98 1.32 3 2 C1.625 4 1.625 4 0 6 C-0.66 6 -1.32 6 -2 6 C-2.33 4.35 -2.66 2.7 -3 1 C-2.01 1.495 -2.01 1.495 -1 2 C-0.67 1.34 -0.34 0.68 0 0 Z " fill="#DCDFFB" transform="translate(412,681)"/>
<path d="M0 0 C0.66 0.33 1.32 0.66 2 1 C1.6875 2.875 1.6875 2.875 1 5 C0.01 5.66 -0.98 6.32 -2 7 C-2.33 6.01 -2.66 5.02 -3 4 C-1.5625 1.8125 -1.5625 1.8125 0 0 Z " fill="#9CA4E0" transform="translate(663,665)"/>
<path d="M0 0 C0.99 0.33 1.98 0.66 3 1 C3 2.32 3 3.64 3 5 C0.69 4.67 -1.62 4.34 -4 4 C-2.68 2.68 -1.36 1.36 0 0 Z " fill="#B5BCEA" transform="translate(482,592)"/>
<path d="M0 0 C2.45484649 2.13464912 3.68134222 3.70720291 4 7 C3.34 7.66 2.68 8.32 2 9 C0 3.375 0 3.375 0 0 Z " fill="#2E335E" transform="translate(618,566)"/>
<path d="M0 0 C2 1.1875 2 1.1875 4 3 C4.25 5.6875 4.25 5.6875 4 8 C1.47411298 5.63707344 0.11179163 4.33537489 -1 1 C-0.67 0.67 -0.34 0.34 0 0 Z " fill="#282D66" transform="translate(784,409)"/>
<path d="M0 0 C4.62 0 9.24 0 14 0 C12.515 1.485 12.515 1.485 11 3 C10.67 2.67 10.34 2.34 10 2 C8.31816052 1.76712992 6.6287584 1.58735834 4.9375 1.4375 C4.01839844 1.35371094 3.09929688 1.26992188 2.15234375 1.18359375 C1.08693359 1.09271484 1.08693359 1.09271484 0 1 C0 0.67 0 0.34 0 0 Z " fill="#9098DC" transform="translate(525,349)"/>
<path d="M0 0 C1.98 0 3.96 0 6 0 C5.67 0.99 5.34 1.98 5 3 C3.02 3.33 1.04 3.66 -1 4 C-0.67 2.68 -0.34 1.36 0 0 Z " fill="#121423" transform="translate(617,1114)"/>
<path d="M0 0 C1.32 0 2.64 0 4 0 C4.33 1.32 4.66 2.64 5 4 C3.02 4 1.04 4 -1 4 C-0.67 2.68 -0.34 1.36 0 0 Z " fill="#454550" transform="translate(482,1107)"/>
<path d="M0 0 C1.65 0 3.3 0 5 0 C5.33 0.99 5.66 1.98 6 3 C4.35 2.67 2.7 2.34 1 2 C1 3.65 1 5.3 1 7 C0.67 7 0.34 7 0 7 C0 4.69 0 2.38 0 0 Z " fill="#1C1E2C" transform="translate(571,1096)"/>
<path d="M0 0 C3 2 3 2 3.6875 4.125 C3.8421875 5.053125 3.8421875 5.053125 4 6 C2.68 6 1.36 6 0 6 C0 4.02 0 2.04 0 0 Z " fill="#DBDDEF" transform="translate(404,760)"/>
<path d="M0 0 C2 3 2 3 1.625 6.1875 C1.41875 7.115625 1.2125 8.04375 1 9 C0.34 8.67 -0.32 8.34 -1 8 C-1.40729228 5.67843403 -1.74438677 3.3431213 -2 1 C-1.34 0.67 -0.68 0.34 0 0 Z " fill="#1B1F37" transform="translate(653,687)"/>
<path d="M0 0 C0.99 0.66 1.98 1.32 3 2 C2.34 3.32 1.68 4.64 1 6 C0.34 5.67 -0.32 5.34 -1 5 C-1.66 5 -2.32 5 -3 5 C-2.67 4.01 -2.34 3.02 -2 2 C-1.34 2 -0.68 2 0 2 C0 1.34 0 0.68 0 0 Z " fill="#AAB2F4" transform="translate(664,662)"/>
<path d="M0 0 C1.98 0.66 3.96 1.32 6 2 C4.68799596 3.35432675 3.35368596 4.68733482 2 6 C1.67 6 1.34 6 1 6 C0.67 4.02 0.34 2.04 0 0 Z " fill="#B1B8E5" transform="translate(516,649)"/>
<path d="M0 0 C1.32 0 2.64 0 4 0 C4 0.66 4 1.32 4 2 C5.98 2 7.96 2 10 2 C7.64561267 3.42944945 6.51967567 4.08661261 3.75 3.625 C3.1725 3.41875 2.595 3.2125 2 3 C2 2.34 2 1.68 2 1 C1.34 0.67 0.68 0.34 0 0 Z " fill="#A9B0E6" transform="translate(558,626)"/>
<path d="M0 0 C1.32 0.33 2.64 0.66 4 1 C3.01 2.98 2.02 4.96 1 7 C0.67 7 0.34 7 0 7 C0 4.69 0 2.38 0 0 Z " fill="#7F86DB" transform="translate(780,565)"/>
<path d="M0 0 C-4.30769231 3.07692308 -4.30769231 3.07692308 -7.8125 2.6875 C-8.534375 2.460625 -9.25625 2.23375 -10 2 C-3.75 -1.125 -3.75 -1.125 0 0 Z " fill="#99A0D4" transform="translate(564,557)"/>
<path d="M0 0 C0.99 1.32 1.98 2.64 3 4 C2.34 5.32 1.68 6.64 1 8 C-0.42944945 5.64561267 -1.08661261 4.51967567 -0.625 1.75 C-0.41875 1.1725 -0.2125 0.595 0 0 Z " fill="#313667" transform="translate(457,377)"/>
<path d="M0 0 C0.66 1.32 1.32 2.64 2 4 C1.34 4 0.68 4 0 4 C-0.33 4.99 -0.66 5.98 -1 7 C-1.66 6.34 -2.32 5.68 -3 5 C-1.125 1.125 -1.125 1.125 0 0 Z " fill="#A6ACEA" transform="translate(473,369)"/>
<path d="M0 0 C0.928125 0.20625 1.85625 0.4125 2.8125 0.625 C0.24036866 2.24449011 -0.86419159 2.66908751 -3.9375 2.25 C-4.68 2.04375 -5.4225 1.8375 -6.1875 1.625 C-3.1875 -0.375 -3.1875 -0.375 0 0 Z " fill="#7982D6" transform="translate(703.1875,354.375)"/>
<path d="M0 0 C3.125 -0.1875 3.125 -0.1875 6 0 C6 0.99 6 1.98 6 3 C3.36 3 0.72 3 -2 3 C-1.34 2.01 -0.68 1.02 0 0 Z " fill="#353C6F" transform="translate(530,346)"/>
</svg>
